<?xml version="1.0" encoding="UTF-8"?>
<svg version="1.1" xmlns="http://www.w3.org/2000/svg" width="360" height="360">
<path d="M0 0 C118.8 0 237.6 0 360 0 C360 118.8 360 237.6 360 360 C241.2 360 122.4 360 0 360 C0 241.2 0 122.4 0 0 Z " fill="#050505" transform="translate(0,0)"/>
<path d="M0 0 C0.81388184 0.16097168 1.62776367 0.32194336 2.46630859 0.48779297 C30.887051 6.30608065 54.17210249 20.33192533 76 39 C76.83273437 39.6909375 77.66546875 40.381875 78.5234375 41.09375 C83.17093513 45.01118095 87.13020793 49.32044968 91 54 C91.62648438 54.73863281 92.25296875 55.47726563 92.8984375 56.23828125 C107.59429394 73.98367312 117.79093427 94.87037888 124 117 C124.20882813 117.68594238 124.41765625 118.37188477 124.6328125 119.07861328 C128.34631364 131.60286595 128.39277314 144.29609543 128.4375 157.25 C128.44689606 158.53188202 128.44689606 158.53188202 128.45648193 159.83966064 C128.53642198 177.11458055 125.66759221 192.66492308 120 209 C119.75846191 209.69722168 119.51692383 210.39444336 119.26806641 211.11279297 C116.46118544 219.11231216 113.48729599 226.77430286 109 234 C108.28305917 235.21307216 107.56699811 236.42666449 106.8515625 237.640625 C101.33180393 246.87181082 95.16052895 254.99252676 88 263 C86.70755705 264.49933118 85.41577324 265.99923112 84.125 267.5 C73.15762008 280.1325842 59.58775534 289.98019138 45 298 C43.70835937 298.7115625 43.70835937 298.7115625 42.390625 299.4375 C39.41459437 301.0015453 37.40586477 302 34 302 C34 302.66 34 303.32 34 304 C12.83755381 311.59414862 -6.82487819 317.39782303 -29.46166992 317.26074219 C-31.56523307 317.24998602 -33.66794613 317.26073763 -35.77148438 317.2734375 C-44.65280333 317.28224178 -53.23639438 316.50229258 -62 315 C-63.12092041 314.8134082 -64.24184082 314.62681641 -65.39672852 314.43457031 C-66.25580811 314.29116211 -67.1148877 314.14775391 -68 314 C-69.01604787 308.39292099 -68.95931447 303.2320976 -68.5625 297.5625 C-68.376875 294.736875 -68.19125 291.91125 -68 289 C-75.92 289 -83.84 289 -92 289 C-92 281.08 -92 273.16 -92 265 C-99.92 265 -107.84 265 -116 265 C-116 258.73 -116 252.46 -116 246 C-60.56 246 -5.12 246 52 246 C52 252.27 52 258.54 52 265 C59.92 265 67.84 265 76 265 C75.63345675 259.34592434 75.63345675 259.34592434 75.25170898 253.69287109 C74.98658282 249.289299 75.05025914 245.3477026 76 241 C75.34 240.67 74.68 240.34 74 240 C74.33 239.34 74.66 238.68 75 238 C75.07187519 235.28024285 75.0927862 232.59325368 75.0625 229.875 C75.0315625 225.976875 75.0315625 225.976875 75 222 C67.41 222 59.82 222 52 222 C52 220.35 52 218.7 52 217 C59.59 217 67.18 217 75 217 C75 187.63 75 158.26 75 128 C71.62549891 131.3642394 71.62549891 131.3642394 68.296875 134.7734375 C63.9211413 139.30386885 59.24253142 143.48718363 54 147 C53.34 147 52.68 147 52 147 C52 147.66 52 148.32 52 149 C46.58823529 153 46.58823529 153 44 153 C44 153.66 44 154.32 44 155 C27.22421949 164.74077578 27.22421949 164.74077578 18 168 C17.1440625 168.33515625 16.288125 168.6703125 15.40625 169.015625 C4.50918834 173.21162001 -6.34930805 175.39122511 -18 176 C-17.89558594 177.06927734 -17.89558594 177.06927734 -17.7890625 178.16015625 C-17.49243445 183.4076477 -17.33493275 187.0092422 -20.875 191.125 C-24.40191425 194.68599071 -26.80775429 195.21455193 -31.8125 195.375 C-37.53958639 195.34070607 -37.53958639 195.34070607 -41.125 192.6875 C-43.98762544 188.58440354 -45.27278528 186.30220847 -45.625 181.3125 C-45.73714844 179.82169922 -45.73714844 179.82169922 -45.8515625 178.30078125 C-45.92503906 177.16189453 -45.92503906 177.16189453 -46 176 C-46.58789307 175.93530518 -47.17578613 175.87061035 -47.78149414 175.80395508 C-60.09028329 174.40563822 -71.46370939 172.62029161 -83 168 C-83.83402344 167.67 -84.66804688 167.34 -85.52734375 167 C-94.24661846 163.32227429 -102.38021189 158.56916906 -110.1875 153.25 C-110.76467773 152.86110596 -111.34185547 152.47221191 -111.93652344 152.0715332 C-113.32999019 151.10140081 -114.6708611 150.05654921 -116 149 C-116 148.34 -116 147.68 -116 147 C-117.65 146.34 -119.3 145.68 -121 145 C-126.28 139.72 -131.56 134.44 -137 129 C-137.33 157.71 -137.66 186.42 -138 216 C-138.66 215.67 -139.32 215.34 -140 215 C-140.06939664 202.51773166 -140.1227586 190.03550893 -140.15543652 177.55308723 C-140.17111732 171.75749033 -140.19239962 165.96202505 -140.22631836 160.16650391 C-140.25882571 154.57739843 -140.2768348 148.98841983 -140.28463173 143.39922714 C-140.29019078 141.26288733 -140.30104565 139.12655475 -140.31719017 136.99026871 C-140.33884979 134.00654132 -140.34197174 131.02334365 -140.34057617 128.03955078 C-140.351362 127.14907043 -140.36214783 126.25859009 -140.3732605 125.34112549 C-140.36076355 122.88504028 -140.36076355 122.88504028 -140 119 C-138.515 118.01 -138.515 118.01 -137 117 C-137.99 116.67 -138.98 116.34 -140 116 C-140.31659689 106.47341221 -140.58900627 96.94686793 -140.8056488 87.41747952 C-140.90763165 82.99212383 -141.02458704 78.56824032 -141.17626953 74.14428711 C-141.32220106 69.87175138 -141.42813501 65.59989331 -141.50683594 61.32560921 C-141.54374224 59.69821987 -141.59485805 58.07108656 -141.66064453 56.44460869 C-142.16523264 43.62690868 -142.16523264 43.62690868 -139.21435547 39.50686646 C-137.02734375 37.63305664 -137.02734375 37.63305664 -134.82788086 36.23109436 C-132.67900694 35.05403145 -132.67900694 35.05403145 -132 32 C-129.97007628 30.32672467 -127.9666392 28.8093616 -125.8125 27.3125 C-125.1831958 26.87115723 -124.5538916 26.42981445 -123.90551758 25.97509766 C-105.61685406 13.34227565 -86.07641112 4.53667461 -64.375 -0.1875 C-63.6113916 -0.35475586 -62.8477832 -0.52201172 -62.06103516 -0.69433594 C-41.75729721 -4.89809812 -20.2340061 -4.09231656 0 0 Z " fill="#F1F1F1" transform="translate(212,23)"/>
<path d="M0 0 C0 3 0 3 -2.375 5.5625 C-3.674375 6.7690625 -3.674375 6.7690625 -5 8 C-7.32412414 9.88541198 -7.32412414 9.88541198 -7.20254517 13.01187134 C-7.18033905 14.30426727 -7.15813293 15.59666321 -7.13525391 16.92822266 C-7.12579239 17.64052536 -7.11633087 18.35282806 -7.10658264 19.0867157 C-7.07284762 21.44608926 -7.024749 23.80494344 -6.9765625 26.1640625 C-6.95040123 27.79786819 -6.92513376 29.43168841 -6.90072632 31.06552124 C-6.83401773 35.36965299 -6.75513767 39.67347975 -6.67376709 43.97735596 C-6.59290301 48.36759721 -6.5234881 52.75801761 -6.453125 57.1484375 C-6.31332238 65.76584247 -6.16066785 74.38295893 -6 83 C-5.01 83.495 -5.01 83.495 -4 84 C-4.33 84.66 -4.66 85.32 -5 86 C-5.33 86 -5.66 86 -6 86 C-6.02312143 98.499571 -6.04091406 110.99913695 -6.05181217 123.49872494 C-6.05704144 129.30213613 -6.06413987 135.10553275 -6.07543945 140.90893555 C-6.08626678 146.50450853 -6.0922765 152.10006745 -6.09487724 157.6956501 C-6.09673177 159.83558944 -6.10035291 161.97552796 -6.10573006 164.11546135 C-6.11293844 167.10164966 -6.11399103 170.08777907 -6.11352539 173.07397461 C-6.1189183 174.41508804 -6.1189183 174.41508804 -6.12442017 175.78329468 C-6.50994865 179.70541923 -6.50994865 179.70541923 -5 183 C-5 153.96 -5 124.92 -5 95 C0.1826895 99.44230529 4.8683516 103.84072986 9.5703125 108.73046875 C11.92224582 111.08748308 11.92224582 111.08748308 14.8046875 112.67578125 C15.52914062 113.11277344 16.25359375 113.54976563 17 114 C17 114.66 17 115.32 17 116 C17.57878906 116.27457031 18.15757813 116.54914063 18.75390625 116.83203125 C20.95848165 117.97841046 22.90388776 119.26280045 24.9375 120.6875 C35.69461666 127.88811066 46.84251342 132.77301597 59 137 C59.91265625 137.35320312 60.8253125 137.70640625 61.765625 138.0703125 C66.542398 139.44334629 71.38721929 139.95920897 76.3125 140.5625 C78.3090677 140.81000839 80.3051944 141.06111014 82.30078125 141.31640625 C83.17903564 141.42412354 84.05729004 141.53184082 84.9621582 141.64282227 C87 142 87 142 88 143 C88.15831254 144.74730139 88.27664255 146.49830059 88.375 148.25 C88.73339403 152.56752812 89.13419978 155.58308435 92 159 C96.66181771 162.10787848 101.5404444 161.61235556 107 161 C110.52121839 158.95769333 111.75217677 157.37173484 114 154 C114.45772063 151.26127045 114.45772063 151.26127045 114.625 148.3125 C114.69976562 147.31863281 114.77453125 146.32476562 114.8515625 145.30078125 C114.92503906 144.16189453 114.92503906 144.16189453 115 143 C116.19496094 142.81824219 117.38992187 142.63648438 118.62109375 142.44921875 C129.40632833 140.86121602 129.40632833 140.86121602 139.83203125 137.79296875 C142 137 142 137 144.82421875 136.23828125 C153.32551261 133.92735143 160.59293926 130.26834759 168.25 126.0234375 C171.09796194 124.44993853 173.93499627 123.11345839 177 122 C177 121.34 177 120.68 177 120 C182.41176471 116 182.41176471 116 185 116 C185 115.34 185 114.68 185 114 C186.3984375 112.80859375 186.3984375 112.80859375 188.375 111.4375 C194.20031838 107.21128863 200.38703999 102.56145837 204.66796875 96.7265625 C205.10753906 96.15679687 205.54710937 95.58703125 206 95 C206.66 95 207.32 95 208 95 C208 124.37 208 153.74 208 184 C200.41 184 192.82 184 185 184 C185 185.65 185 187.3 185 189 C192.59 189 200.18 189 208 189 C208.165 191.76375 208.33 194.5275 208.5 197.375 C208.55220703 198.24431152 208.60441406 199.11362305 208.65820312 200.00927734 C209.28851518 210.64704396 209 221.34918236 209 232 C201.08 232 193.16 232 185 232 C185 225.73 185 219.46 185 213 C129.56 213 74.12 213 17 213 C17 219.27 17 225.54 17 232 C24.92 232 32.84 232 41 232 C41 239.92 41 247.84 41 256 C48.92 256 56.84 256 65 256 C65 263.92 65 271.84 65 280 C41.98057632 274.59543966 21.76168208 265.47397443 3 251 C2.0409375 250.26394531 1.081875 249.52789062 0.09375 248.76953125 C-24.13882262 229.77547066 -41.72624514 202.11959025 -51 173 C-51.3196875 172.04609375 -51.639375 171.0921875 -51.96875 170.109375 C-64.61162274 131.22296338 -60.35059425 88.84215809 -42.21875 52.3671875 C-32.39996599 33.13945995 -17.90609619 12.6146966 0 0 Z " fill="#F3F3F3" transform="translate(79,56)"/>
<path d="M0 0 C7.92 0 15.84 0 24 0 C25.54511857 18.69593467 23.37366286 32.83470107 16 50 C15.50886719 51.17949219 15.01773438 52.35898438 14.51171875 53.57421875 C-0.07828691 86.6373582 -28.82536501 119.24083128 -63 133 C-63.99 133 -64.98 133 -66 133 C-66 133.66 -66 134.32 -66 135 C-87.16244619 142.59414862 -106.82487819 148.39782303 -129.46166992 148.26074219 C-131.56523307 148.24998602 -133.66794613 148.26073763 -135.77148438 148.2734375 C-144.65280333 148.28224178 -153.23639438 147.50229258 -162 146 C-163.68138062 145.7201123 -163.68138062 145.7201123 -165.39672852 145.43457031 C-166.6853479 145.21945801 -166.6853479 145.21945801 -168 145 C-169.01604787 139.39292099 -168.95931447 134.2320976 -168.5625 128.5625 C-168.376875 125.736875 -168.19125 122.91125 -168 120 C-175.92 120 -183.84 120 -192 120 C-192 112.08 -192 104.16 -192 96 C-199.92 96 -207.84 96 -216 96 C-216 89.73 -216 83.46 -216 77 C-160.56 77 -105.12 77 -48 77 C-48 83.27 -48 89.54 -48 96 C-40.08 96 -32.16 96 -24 96 C-24.36654325 90.34592434 -24.36654325 90.34592434 -24.74829102 84.69287109 C-25.01341718 80.289299 -24.94974086 76.3477026 -24 72 C-24.66 71.67 -25.32 71.34 -26 71 C-25.67 70.34 -25.34 69.68 -25 69 C-24.92812481 66.28024285 -24.9072138 63.59325368 -24.9375 60.875 C-24.9684375 56.976875 -24.9684375 56.976875 -25 53 C-32.59 53 -40.18 53 -48 53 C-48 51.35 -48 49.7 -48 48 C-36.615 47.505 -36.615 47.505 -25 47 C-24.67 39.41 -24.34 31.82 -24 24 C-16.08 24 -8.16 24 0 24 C0 16.08 0 8.16 0 0 Z " fill="#F8F8F8" transform="translate(312,192)"/>
<path d="M0 0 C0.81689806 -0.01021437 1.63379612 -0.02042874 2.47544867 -0.03095263 C5.20531603 -0.05647764 7.93240308 -0.03210751 10.6622467 -0.00773621 C12.62220624 -0.01558667 14.58215573 -0.02642973 16.54208374 -0.04003906 C21.86054327 -0.06767426 27.17802954 -0.05119482 32.49646449 -0.02519059 C38.0639125 -0.00373933 43.63129274 -0.01724995 49.19876099 -0.02548218 C58.54937626 -0.0336421 67.89960084 -0.01297568 77.25013733 0.02449036 C88.05670872 0.06741472 98.86251357 0.06389165 109.66911596 0.03562278 C120.06813679 0.00957705 130.46687313 0.01741196 140.86589241 0.04032326 C145.2896483 0.04941801 149.71315435 0.04648266 154.13689995 0.0338192 C159.3484545 0.02036656 164.55910273 0.03654277 169.77052116 0.07545662 C171.68166799 0.08497694 173.59289691 0.08433376 175.50403214 0.07271576 C178.11657495 0.05852657 180.72629714 0.08139865 183.33862305 0.11352539 C184.46918362 0.09447207 184.46918362 0.09447207 185.62258381 0.07503384 C190.86187823 0.19556807 193.57614037 1.7984105 197.42647082 5.3113392 C199.43089966 7.7215917 199.46991068 9.56669725 199.23280334 12.63215637 C199.18124084 13.57575012 199.12967834 14.51934387 199.07655334 15.49153137 C198.73280334 17.88215637 198.73280334 17.88215637 197.73280334 19.88215637 C197.07280334 19.88215637 196.41280334 19.88215637 195.73280334 19.88215637 C195.47756897 20.6066095 195.22233459 21.33106262 194.95936584 22.07746887 C191.55139402 29.87021972 184.63575439 36.98851502 177.73280334 41.88215637 C177.07280334 41.88215637 176.41280334 41.88215637 175.73280334 41.88215637 C175.73280334 42.54215637 175.73280334 43.20215637 175.73280334 43.88215637 C173.90028381 45.34675598 173.90028381 45.34675598 171.34999084 47.03450012 C170.42960022 47.64616028 169.50920959 48.25782043 168.56092834 48.88801575 C167.58639709 49.52545715 166.61186584 50.16289856 165.60780334 50.81965637 C164.18081116 51.7700177 164.18081116 51.7700177 162.72499084 52.73957825 C150.39553501 60.88215637 150.39553501 60.88215637 145.73280334 60.88215637 C145.73280334 61.54215637 145.73280334 62.20215637 145.73280334 62.88215637 C137.27264011 65.69452671 128.80967576 68.23524658 120.10780334 70.19465637 C119.36288635 70.36577942 118.61796936 70.53690247 117.85047913 70.71321106 C113.73627482 71.60926371 109.97133233 72.06266155 105.73280334 71.88215637 C105.55104553 70.81674622 105.55104553 70.81674622 105.36561584 69.72981262 C105.19803772 68.81071106 105.03045959 67.8916095 104.85780334 66.94465637 C104.69538147 66.02813293 104.53295959 65.1116095 104.36561584 64.16731262 C104.05237366 63.03616028 104.05237366 63.03616028 103.73280334 61.88215637 C103.07280334 61.55215637 102.41280334 61.22215637 101.73280334 60.88215637 C101.73280334 60.22215637 101.73280334 59.56215637 101.73280334 58.88215637 C96.46457779 55.8161221 90.6036082 56.21026588 84.79530334 57.56965637 C81.99184245 59.35367694 81.06100492 60.82729274 79.73280334 63.88215637 C79.22077672 66.56159667 78.96384376 69.15587945 78.73280334 71.88215637 C73.09367938 72.09296474 68.04669721 71.33819924 62.54530334 70.13215637 C61.28955505 69.85927795 61.28955505 69.85927795 60.00843811 69.58088684 C50.26404747 67.40419825 41.61575827 64.79051287 33.15467834 59.37434387 C30.77823548 57.91014843 28.38996619 56.73896724 25.85780334 55.56965637 C15.60622437 50.54027672 6.97660833 42.66876593 -1.26719666 34.88215637 C-1.93879822 34.25180481 -2.61039978 33.62145325 -3.30235291 32.97200012 C-8.97849654 27.48867665 -14.45738631 21.26672163 -14.76719666 13.06965637 C-14.81875916 12.25883606 -14.87032166 11.44801575 -14.92344666 10.61262512 C-13.05891514 2.8548422 -7.64309177 -0.1647765 0 0 Z " fill="#010101" transform="translate(88.26719665527344,120.11784362792969)"/>
<path d="M0 0 C5.1826895 4.44230529 9.8683516 8.84072986 14.5703125 13.73046875 C16.92224582 16.08748308 16.92224582 16.08748308 19.8046875 17.67578125 C20.52914062 18.11277344 21.25359375 18.54976562 22 19 C22 19.66 22 20.32 22 21 C22.57878906 21.27457031 23.15757813 21.54914063 23.75390625 21.83203125 C25.95848165 22.97841046 27.90388776 24.26280045 29.9375 25.6875 C40.69461666 32.88811066 51.84251342 37.77301597 64 42 C65.36898437 42.52980469 65.36898437 42.52980469 66.765625 43.0703125 C71.542398 44.44334629 76.38721929 44.95920897 81.3125 45.5625 C83.3090677 45.81000839 85.3051944 46.06111014 87.30078125 46.31640625 C88.17903564 46.42412354 89.05729004 46.53184082 89.9621582 46.64282227 C92 47 92 47 93 48 C93.15831254 49.74730139 93.27664255 51.49830059 93.375 53.25 C93.73339403 57.56752812 94.13419978 60.58308435 97 64 C101.66181771 67.10787848 106.5404444 66.61235556 112 66 C115.52121839 63.95769333 116.75217677 62.37173484 119 59 C119.45772063 56.26127045 119.45772063 56.26127045 119.625 53.3125 C119.69976562 52.31863281 119.77453125 51.32476562 119.8515625 50.30078125 C119.92503906 49.16189453 119.92503906 49.16189453 120 48 C121.19496094 47.81824219 122.38992187 47.63648438 123.62109375 47.44921875 C134.40632833 45.86121602 134.40632833 45.86121602 144.83203125 42.79296875 C147 42 147 42 149.82421875 41.23828125 C158.32551261 38.92735143 165.59293926 35.26834759 173.25 31.0234375 C176.09796194 29.44993853 178.93499627 28.11345839 182 27 C182 26.34 182 25.68 182 25 C187.41176471 21 187.41176471 21 190 21 C190 20.34 190 19.68 190 19 C191.3984375 17.80859375 191.3984375 17.80859375 193.375 16.4375 C199.20031838 12.21128863 205.38703999 7.56145837 209.66796875 1.7265625 C210.10753906 1.15679687 210.54710937 0.58703125 211 0 C211.66 0 212.32 0 213 0 C213 29.04 213 58.08 213 88 C142.71 88 72.42 88 0 88 C0 58.96 0 29.92 0 0 Z " fill="#020202" transform="translate(74,151)"/>
<path d="M0 0 C1.14601685 0.13486816 1.14601685 0.13486816 2.31518555 0.27246094 C19.25565906 2.51836367 34.64217471 9.88732281 49.3125 18.375 C50.15941406 18.86226562 51.00632812 19.34953125 51.87890625 19.8515625 C57.85518568 23.46761235 63.42985843 27.58992173 68.9375 31.875 C69.6493042 32.40875244 70.3611084 32.94250488 71.09448242 33.49243164 C74.60174471 36.29064759 76.11323578 37.65095595 77.3359375 42.09375 C77.3125 45.375 77.3125 45.375 76.3125 48.375 C68.3925 48.375 60.4725 48.375 52.3125 48.375 C52.3125 56.295 52.3125 64.215 52.3125 72.375 C60.2325 72.375 68.1525 72.375 76.3125 72.375 C76.3125 80.295 76.3125 88.215 76.3125 96.375 C84.2325 96.375 92.1525 96.375 100.3125 96.375 C100.3125 104.295 100.3125 112.215 100.3125 120.375 C92.3925 120.375 84.4725 120.375 76.3125 120.375 C75.9825 114.765 75.6525 109.155 75.3125 103.375 C73.9925 102.715 72.6725 102.055 71.3125 101.375 C70.33232658 100.34001373 70.33232658 100.34001373 69.33235168 99.28411865 C64.50381184 96.23156626 59.59199444 96.80521902 53.99487305 96.82910156 C52.1210923 96.81359505 52.1210923 96.81359505 50.2094574 96.79777527 C46.79224535 96.77336212 43.37584843 96.76650987 39.95860648 96.76749516 C36.38441619 96.76436344 32.81038838 96.73873992 29.23628235 96.71551514 C22.47200125 96.67497121 15.70781651 96.65461828 8.94343263 96.64154124 C1.24083756 96.62566569 -6.46159364 96.58724779 -14.16409361 96.54694796 C-30.00518036 96.46457108 -45.84623457 96.41046524 -61.6875 96.375 C-61.6875 95.715 -61.6875 95.055 -61.6875 94.375 C-41.2275 94.375 -20.7675 94.375 0.3125 94.375 C2.09417652 80.65433631 2.09417652 80.65433631 -1.6875 69.375 C-3.02765221 69.21917697 -4.37508903 69.12455858 -5.72265625 69.05859375 C-6.45105713 69.02048584 -7.17945801 68.98237793 -7.92993164 68.94311523 C-8.8605542 68.90001221 -9.79117676 68.85690918 -10.75 68.8125 C-13.699375 68.668125 -16.64875 68.52375 -19.6875 68.375 C-19.6875 61.775 -19.6875 55.175 -19.6875 48.375 C-11.7675 48.375 -3.8475 48.375 4.3125 48.375 C4.3125 40.455 4.3125 32.535 4.3125 24.375 C-3.6075 24.375 -11.5275 24.375 -19.6875 24.375 C-19.6875 16.455 -19.6875 8.535 -19.6875 0.375 C-6.69591293 -0.80605337 -6.69591293 -0.80605337 0 0 Z " fill="#FDFDFD" transform="translate(211.6875,23.625)"/>
<path d="M0 0 C55.44 0 110.88 0 168 0 C168 0.33 168 0.66 168 1 C167.030625 1.10957031 166.06125 1.21914063 165.0625 1.33203125 C132.29871108 5.14820936 101.38123145 14.58190813 75 35 C73.87157048 35.86130203 72.74263834 36.72194583 71.61328125 37.58203125 C68.39641398 40.03904381 65.19200827 42.51074156 62 45 C61.11054687 45.68707031 60.22109375 46.37414063 59.3046875 47.08203125 C57.27774808 48.76885711 55.65669892 50.39957207 54 52.4375 C51.48007084 55.4639798 48.78611613 58.21388387 46 61 C36.27988081 71.00909571 27.64531461 83.24489585 22 96 C21.3604157 97.27398979 20.714638 98.5448904 20.0625 99.8125 C19.37113626 101.20642365 18.68413498 102.6025143 18 104 C17.52433594 104.96679688 17.04867188 105.93359375 16.55859375 106.9296875 C12.95247678 114.46728537 10.2531558 121.96171444 8 130 C7.73445312 130.8559375 7.46890625 131.711875 7.1953125 132.59375 C3.50135884 144.93231685 1.83588937 158.17342169 1 171 C0.67 171 0.34 171 0 171 C0 114.57 0 58.14 0 0 Z " fill="#FDFDFD" transform="translate(0,0)"/>
<path d="M0 0 C0.33 0 0.66 0 1 0 C1.06993164 0.56807373 1.13986328 1.13614746 1.21191406 1.72143555 C2.61247615 12.85950688 4.30835316 23.35854831 8 34 C8.65082032 36.18602147 9.29658106 38.37355508 9.9375 40.5625 C15.77781351 59.30946054 25.16537913 77.33257578 37 93 C37.639375 93.84949219 38.27875 94.69898438 38.9375 95.57421875 C40.59811212 97.73945654 42.28812132 99.87520586 44 102 C44.67675781 102.86238281 44.67675781 102.86238281 45.3671875 103.7421875 C47.24299585 106.08403519 49.08456026 108.06721457 51.4375 109.9375 C53.57125659 111.65491384 54.94367868 113.08705273 56.625 115.1875 C70.88961113 132.21066188 93.66759969 143.84193815 114 152 C114.85851562 152.36738281 115.71703125 152.73476563 116.6015625 153.11328125 C131.79571784 159.52254222 147.74134657 162.03648316 164 164 C164 164.33 164 164.66 164 165 C109.88 165 55.76 165 0 165 C0 110.55 0 56.1 0 0 Z " fill="#FDFDFD" transform="translate(0,195)"/>
<path d="M0 0 C54.12 0 108.24 0 164 0 C164 52.8 164 105.6 164 160 C163.67 160 163.34 160 163 160 C162.85304688 158.86046875 162.70609375 157.7209375 162.5546875 156.546875 C160.4458351 141.2796963 156.96842905 126.27494111 150.14453125 112.3671875 C148.97576616 109.94987812 148.01270856 107.51042757 147.0625 105 C143.73554764 96.60340595 139.07620412 88.97828281 134.25 81.375 C133.86110596 80.75850586 133.47221191 80.14201172 133.0715332 79.50683594 C131.05778931 76.21249067 131.05778931 76.21249067 128 74 C126.99304223 72.24594454 125.98879255 70.4900077 125.01953125 68.71484375 C123.9065693 66.84285028 122.57241848 65.49379755 121 64 C121 63.34 121 62.68 121 62 C120.39671875 61.73574219 119.7934375 61.47148438 119.171875 61.19921875 C116.8957713 59.94244926 115.83181567 58.84559838 114.25 56.8125 C111.44961886 53.41404751 108.40612691 50.58570077 105.05078125 47.7421875 C103.73600835 46.62525662 102.43956191 45.4861655 101.16796875 44.3203125 C92.07672363 36.01378538 81.73104825 29.64845568 70.99609375 23.7265625 C68 22 68 22 65.8671875 20.38671875 C63.85647983 18.89341075 62.02664182 18.07225312 59.6875 17.1875 C56.63567497 16.02298782 53.61358417 14.83483839 50.609375 13.55078125 C41.23416801 9.59125234 31.95402578 7.06706584 22 5 C21.05125 4.79632812 20.1025 4.59265625 19.125 4.3828125 C12.78475594 3.06192832 6.39250136 2.03246586 0 1 C0 0.67 0 0.34 0 0 Z " fill="#FDFDFD" transform="translate(196,0)"/>
<path d="M0 0 C0.33 0 0.66 0 1 0 C1 53.46 1 106.92 1 162 C-52.46 162 -105.92 162 -161 162 C-161 161.67 -161 161.34 -161 161 C-160.195625 160.96132813 -160.195625 160.96132813 -159.375 160.921875 C-151.75919962 160.37073155 -144.55777682 158.56126861 -137.21337891 156.59130859 C-134.930634 155.98146873 -132.64335642 155.39100378 -130.35546875 154.80078125 C-121.81844538 152.56090448 -113.89477021 150.01281138 -106 146 C-104.74571421 145.39392041 -103.49042922 144.7899061 -102.234375 144.1875 C-94.34584703 140.36726352 -86.84263671 136.22105594 -79.4765625 131.46875 C-77 130 -77 130 -75 130 C-75 129.34 -75 128.68 -75 128 C-73.03501678 126.61558 -71.02951535 125.28796166 -69 124 C-68.2575 123.4225 -67.515 122.845 -66.75 122.25 C-65 121 -65 121 -63 121 C-62.505 119.515 -62.505 119.515 -62 118 C-60.46875 116.4921875 -60.46875 116.4921875 -58.5 114.875 C-49.09008914 106.88163486 -40.81538863 98.21886502 -34.296875 87.72265625 C-33.86890625 87.15417969 -33.4409375 86.58570313 -33 86 C-32.34 86 -31.68 86 -31 86 C-30.79375 85.195625 -30.5875 84.39125 -30.375 83.5625 C-28.83664339 79.57675787 -26.76845219 76.44462075 -24.33984375 72.953125 C-22.96571923 71.04576051 -22.96571923 71.04576051 -22 69 C-21.34 69 -20.68 69 -20 69 C-19.89816406 68.32582031 -19.79632813 67.65164063 -19.69140625 66.95703125 C-18.84598862 63.34131857 -17.4376995 60.0672998 -15.9375 56.6875 C-15.65583984 56.04232422 -15.37417969 55.39714844 -15.08398438 54.73242188 C-14.3937257 53.15301642 -13.69746802 51.57623507 -13 50 C-12.34 50 -11.68 50 -11 50 C-10.88398438 48.83984375 -10.76796875 47.6796875 -10.6484375 46.484375 C-10.11241095 42.20744733 -8.99412449 38.32452256 -7.625 34.25 C-3.97165453 22.92344674 -1.48745393 11.82963359 0 0 Z " fill="#F5F5F5" transform="translate(359,198)"/>
<path d="M0 0 C0 0.33 0 0.66 0 1 C-6.6 1 -13.2 1 -20 1 C-20 8.92 -20 16.84 -20 25 C-12.08 25 -4.16 25 4 25 C4 32.92 4 40.84 4 49 C-3.92 49 -11.84 49 -20 49 C-20 55.6 -20 62.2 -20 69 C-14.16607311 68.92094256 -14.16607311 68.92094256 -8.33251953 68.81982422 C-7.60661621 68.8148291 -6.88071289 68.80983398 -6.1328125 68.8046875 C-5.38918457 68.79421387 -4.64555664 68.78374023 -3.87939453 68.77294922 C-2 69 -2 69 0 71 C0 78.92 0 86.84 0 95 C-20.46 95 -40.92 95 -62 95 C-62 95.66 -62 96.32 -62 97 C-19.76 97 22.48 97 66 97 C66 97.33 66 97.66 66 98 C1.32 98 -63.36 98 -130 98 C-130 97.67 -130 97.34 -130 97 C-125.38 97 -120.76 97 -116 97 C-116 89.08 -116 81.16 -116 73 C-108.08 73 -100.16 73 -92 73 C-92 80.92 -92 88.84 -92 97 C-84.08 97 -76.16 97 -68 97 C-68 73.24 -68 49.48 -68 25 C-60.08 25 -52.16 25 -44 25 C-44 17.08 -44 9.16 -44 1 C-47.63 1 -51.26 1 -55 1 C-56.65 0.67 -58.3 0.34 -60 0 C-60 -0.33 -60 -0.66 -60 -1 C-39.84053283 -4.32038283 -20.04884222 -3.72589103 0 0 Z " fill="#EEEEEE" transform="translate(212,23)"/>
<path d="M0 0 C0 7.92 0 15.84 0 24 C-7.92 24 -15.84 24 -24 24 C-23.91621094 26.76761719 -23.83242187 29.53523438 -23.74609375 32.38671875 C-23.13615043 53.6705897 -22.98677671 74.72231098 -24 96 C-31.92 96 -39.84 96 -48 96 C-48 88.08 -48 80.16 -48 72 C-55.92 72 -63.84 72 -72 72 C-72 79.92 -72 87.84 -72 96 C-75.48307292 96.22786458 -78.96614583 96.45572917 -82.44921875 96.68359375 C-85.38180337 96.94491317 -88.13441617 97.34798379 -91 98 C-91 97.67 -91 97.34 -91 97 C-92.65 96.67 -94.3 96.34 -96 96 C-96.34647562 88.29684949 -96.62866323 80.59324463 -96.86669922 72.88598633 C-96.95516149 70.26565601 -97.05821993 67.64577548 -97.17626953 65.02661133 C-97.34364988 61.25626178 -97.45808029 57.48739799 -97.5625 53.71484375 C-97.62566406 52.54791489 -97.68882813 51.38098602 -97.75390625 50.17869568 C-97.90466326 42.133844 -97.90466326 42.133844 -95.21435547 38.76199341 C-93.02734375 36.89282227 -93.02734375 36.89282227 -90.82788086 35.37721252 C-88.6996824 34.0447096 -88.6996824 34.0447096 -88 31 C-85.97007628 29.32672467 -83.9666392 27.8093616 -81.8125 26.3125 C-81.1831958 25.87115723 -80.5538916 25.42981445 -79.90551758 24.97509766 C-55.43855316 8.07463874 -30.01001517 -2.7281832 0 0 Z " fill="#F1F1F1" transform="translate(168,24)"/>
<path d="M0 0 C69.96 0 139.92 0 212 0 C212 5.28 212 10.56 212 16 C211.34 16 210.68 16 210 16 C209.7525 16.61875 209.505 17.2375 209.25 17.875 C207.69049934 20.52615112 206.88381059 20.94496701 204 22 C201.3351948 22.19160326 198.77586485 22.2741651 196.11170959 22.26069641 C194.9113104 22.26643473 194.9113104 22.26643473 193.68666071 22.27228898 C191.00205942 22.28261713 188.31767208 22.27862719 185.63305664 22.2746582 C183.70956728 22.27900477 181.78607965 22.28418773 179.8625946 22.29014587 C174.63537027 22.30355283 169.40821815 22.30411267 164.18097997 22.30158257 C159.81949353 22.30051405 155.45802178 22.30539318 151.09653848 22.310188 C140.80856986 22.32128898 130.52063774 22.32171721 120.23266602 22.31567383 C109.61374235 22.30963203 98.99495112 22.32194897 88.37605006 22.3432439 C79.26343155 22.36084728 70.15085524 22.36686326 61.03822035 22.36360615 C55.59370699 22.36179119 50.14928811 22.36445075 44.70479012 22.37832069 C39.58547266 22.3908739 34.466362 22.38897869 29.34704781 22.37590981 C27.46728954 22.37353903 25.58751683 22.37629658 23.70777512 22.38453293 C21.14336659 22.39495976 18.57965716 22.38693266 16.01527405 22.3742218 C15.26994087 22.38159609 14.52460769 22.38897037 13.75668865 22.39656812 C9.31647927 22.35020911 6.5042772 21.76716144 3 19 C0 15 0 15 0 0 Z " fill="#020202" transform="translate(74,246)"/>
<path d="M0 0 C1.98 0 3.96 0 6 0 C6.33 0.99 6.66 1.98 7 3 C6.0409375 4.0209375 6.0409375 4.0209375 5.0625 5.0625 C2.49956136 8.71274594 2.2853495 10.95084174 2.51171875 15.3359375 C5.35562476 30.85228867 23.81939569 42.95086683 35.83203125 51.25390625 C40.37970742 54.30495588 45.00322806 56.7736326 50 59 C50.90363281 59.48726562 51.80726562 59.97453125 52.73828125 60.4765625 C65.97982427 67.59718034 80.31740381 69.77995109 95 72 C94.97164063 70.73929687 94.94328125 69.47859375 94.9140625 68.1796875 C94.82665274 64.29392647 95.59394362 62.14638142 98 59 C101.20752745 55.79247255 104.59597233 55.83056148 109 55.75 C109.845625 55.72421875 110.69125 55.6984375 111.5625 55.671875 C114.50664796 56.06820261 115.8663162 56.96509786 118 59 C118 59.66 118 60.32 118 61 C119.485 61.495 119.485 61.495 121 62 C122.60725635 65.21451269 122.05748185 68.43612536 122 72 C139.1717541 69.17961067 139.1717541 69.17961067 155.67578125 63.87890625 C158 63 158 63 162 63 C162 62.34 162 61.68 162 61 C162.84820312 60.61070312 163.69640625 60.22140625 164.5703125 59.8203125 C172.11701554 56.22111566 178.87281455 52.23918808 185.55517578 47.20166016 C189.82116155 44 189.82116155 44 192 44 C192 43.34 192 42.68 192 42 C193.6785513 40.50370821 195.41958898 39.07707339 197.1875 37.6875 C201.04040033 34.64953709 204.58568145 31.52667273 208 28 C208 29.32 208 30.64 208 32 C205.76953125 34.1484375 205.76953125 34.1484375 202.8125 36.375 C198.62904869 39.65698503 194.95731004 42.56403493 192 47 C192.33 47.99 192.66 48.98 193 50 C190.22719294 53.08089673 187.93673644 54.68775452 184 56 C184 56.66 184 57.32 184 58 C167.22421949 67.74077578 167.22421949 67.74077578 158 71 C157.1440625 71.33515625 156.288125 71.6703125 155.40625 72.015625 C144.50918834 76.21162001 133.65069195 78.39122511 122 79 C122.06960937 79.71285156 122.13921875 80.42570312 122.2109375 81.16015625 C122.50756555 86.4076477 122.66506725 90.0092422 119.125 94.125 C115.59808575 97.68599071 113.19224571 98.21455193 108.1875 98.375 C102.46041361 98.34070607 102.46041361 98.34070607 98.875 95.6875 C96.01237456 91.58440354 94.72721472 89.30220847 94.375 84.3125 C94.26285156 82.82169922 94.26285156 82.82169922 94.1484375 81.30078125 C94.09945312 80.54152344 94.05046875 79.78226562 94 79 C93.41210693 78.93530518 92.82421387 78.87061035 92.21850586 78.80395508 C79.90971671 77.40563822 68.53629061 75.62029161 57 71 C56.16597656 70.67 55.33195312 70.34 54.47265625 70 C45.75338154 66.32227429 37.61978811 61.56916906 29.8125 56.25 C29.23532227 55.86110596 28.65814453 55.47221191 28.06347656 55.0715332 C26.67000981 54.10140081 25.3291389 53.05654921 24 52 C24 51.34 24 50.68 24 50 C22.35 49.34 20.7 48.68 19 48 C13.72 42.72 8.44 37.44 3 32 C2.67 60.71 2.34 89.42 2 119 C1.34 118.67 0.68 118.34 0 118 C-0.06939664 105.51773166 -0.1227586 93.03550893 -0.15543652 80.55308723 C-0.17111732 74.75749033 -0.19239962 68.96202505 -0.22631836 63.16650391 C-0.25882571 57.57739843 -0.2768348 51.98841983 -0.28463173 46.39922714 C-0.29019078 44.26288733 -0.30104565 42.12655475 -0.31719017 39.99026871 C-0.33884979 37.00654132 -0.34197174 34.02334365 -0.34057617 31.03955078 C-0.351362 30.14907043 -0.36214783 29.25859009 -0.3732605 28.34112549 C-0.36076355 25.88504028 -0.36076355 25.88504028 0 22 C0.99 21.34 1.98 20.68 3 20 C2.01 19.67 1.02 19.34 0 19 C0 12.73 0 6.46 0 0 Z " fill="#E5E5E5" transform="translate(72,120)"/>
<path d="M0 0 C7.92 0 15.84 0 24 0 C25 4 25 4 24 6 C24.66 5.67 25.32 5.34 26 5 C28.78390737 4.90411628 31.54270877 4.86989107 34.32681274 4.87974548 C35.634071 4.87846385 35.634071 4.87846385 36.96773851 4.87715632 C39.90510792 4.87550152 42.84242096 4.8810229 45.77978516 4.88647461 C47.87857563 4.88675651 49.9773662 4.8865987 52.07615662 4.8860321 C57.7886745 4.88574423 63.50117154 4.89163934 69.21368456 4.89860606 C75.17813036 4.90484127 81.14257659 4.90544353 87.10702515 4.90663147 C98.40819833 4.90974429 109.70936189 4.91795702 121.01053083 4.92798096 C133.87369274 4.93914362 146.7368551 4.94465293 159.60002065 4.94967639 C186.06668578 4.96013967 212.53334235 4.97773816 239 5 C239.16737799 7.79162571 239.33393402 10.58329621 239.5 13.375 C239.57154297 14.56609375 239.57154297 14.56609375 239.64453125 15.78125 C240.28022871 26.49729283 240 37.26992144 240 48 C232.08 48 224.16 48 216 48 C216 41.73 216 35.46 216 29 C160.56 29 105.12 29 48 29 C48 35.27 48 41.54 48 48 C40.08 48 32.16 48 24 48 C24 40.41 24 32.82 24 25 C16.08 24.67 8.16 24.34 0 24 C0 16.08 0 8.16 0 0 Z M26 6 C24.71885623 19.60531342 24.71885623 19.60531342 28.3125 24.875 C32.65874944 28.31156932 36.45816867 28.14847498 41.76130676 28.14717102 C42.95936598 28.15268605 42.95936598 28.15268605 44.18162841 28.1583125 C46.86694167 28.16935511 49.55221625 28.17319414 52.23754883 28.17700195 C54.15926741 28.18326609 56.08098477 28.18991285 58.00270081 28.19691467 C63.23002782 28.21432716 68.4573457 28.22487681 73.68469453 28.2331202 C76.94935595 28.23826914 80.21401452 28.24434488 83.47867393 28.25063133 C93.68966527 28.2696829 103.90064936 28.28391491 114.11165506 28.2922433 C125.90510535 28.30202085 137.69836821 28.3283541 149.49175245 28.36874419 C158.60351021 28.39888138 167.71521417 28.41370984 176.82702082 28.41702431 C182.27106995 28.41937724 187.71491883 28.42836953 193.15891457 28.45348549 C198.27989129 28.47672967 203.40053538 28.48101412 208.52155113 28.47072411 C210.40089905 28.47022777 212.28026314 28.47657693 214.15956116 28.49028015 C216.72602158 28.50794673 219.29128145 28.50091919 221.85774231 28.48774719 C222.60084477 28.49871644 223.34394723 28.50968568 224.10956794 28.52098733 C229.1694386 28.45832048 232.13492747 27.2497397 236 24 C236 23.34 236 22.68 236 22 C236.66 22 237.32 22 238 22 C238 16.72 238 11.44 238 6 C168.04 6 98.08 6 26 6 Z " fill="#EDEDED" transform="translate(48,240)"/>
<path d="M0 0 C7.93613787 -0.02312764 15.87226176 -0.04091723 23.80842495 -0.05181217 C27.49314498 -0.05704008 31.17784203 -0.06413605 34.86254883 -0.07543945 C38.41570831 -0.08627162 41.96884563 -0.09227753 45.52202034 -0.09487724 C46.88045666 -0.0967309 48.23889171 -0.10035038 49.59731865 -0.10573006 C51.49382223 -0.11294475 53.39034793 -0.11340809 55.28686523 -0.11352539 C56.36830307 -0.115746 57.44974091 -0.11796661 58.56394958 -0.12025452 C61 0 61 0 62 1 C62 8.59 62 16.18 62 24 C41.21 24 20.42 24 -1 24 C-1 2 -1 2 0 0 Z " fill="#010101" transform="translate(150,93)"/>
<path d="M0 0 C7.92 0 15.84 0 24 0 C24 7.92 24 15.84 24 24 C31.92 24 39.84 24 48 24 C48 31.92 48 39.84 48 48 C40.08 48 32.16 48 24 48 C23.67 42.39 23.34 36.78 23 31 C21.68 30.34 20.36 29.68 19 29 C18.24332031 28.31421875 17.48664063 27.6284375 16.70703125 26.921875 C13.25524041 24.47125293 10.88309294 24.4068446 6.6875 24.25 C4.480625 24.1675 2.27375 24.085 0 24 C0 16.08 0 8.16 0 0 Z " fill="#FEFEFE" transform="translate(264,96)"/>
<path d="M0 0 C3.57770876 7.15541753 0.36326129 16.00825168 0 24 C20.79 24 41.58 24 63 24 C63 24.33 63 24.66 63 25 C42.54 25 22.08 25 1 25 C1 25.66 1 26.32 1 27 C43.24 27 85.48 27 129 27 C129 27.33 129 27.66 129 28 C64.32 28 -0.36 28 -67 28 C-67 27.67 -67 27.34 -67 27 C-62.38 27 -57.76 27 -53 27 C-53 19.08 -53 11.16 -53 3 C-45.08 3 -37.16 3 -29 3 C-29 10.92 -29 18.84 -29 27 C-21.08 27 -13.16 27 -5 27 C-5 19.08 -5 11.16 -5 3 C-4.34 3 -3.68 3 -3 3 C-3 8.28 -3 13.56 -3 19 C-2.34 19 -1.68 19 -1 19 C-1.01160156 17.71222656 -1.02320313 16.42445312 -1.03515625 15.09765625 C-1.0445327 13.41927228 -1.05363305 11.74088674 -1.0625 10.0625 C-1.07087891 9.21236328 -1.07925781 8.36222656 -1.08789062 7.48632812 C-1.09111328 6.67744141 -1.09433594 5.86855469 -1.09765625 5.03515625 C-1.10289307 4.2862915 -1.10812988 3.53742676 -1.11352539 2.76586914 C-1 1 -1 1 0 0 Z " fill="#EEEEEE" transform="translate(149,93)"/>
<path d="M0 0 C70.29 0 140.58 0 213 0 C213.85171391 14.47913644 214 28.51589778 214 43 C206.08 43 198.16 43 190 43 C190 36.73 190 30.46 190 24 C129.94 24 69.88 24 8 24 C8 23.67 8 23.34 8 23 C9.50828385 22.99641747 9.50828385 22.99641747 11.04703808 22.99276257 C35.50030094 22.93399882 59.95346501 22.85813538 84.40661907 22.76428509 C96.23192645 22.71929693 108.0572035 22.67988922 119.88256836 22.65356445 C130.18813554 22.63060885 140.49360701 22.59723813 150.79909831 22.55129844 C156.257063 22.52733336 161.71493271 22.50862611 167.17294884 22.50238609 C172.30866979 22.49635012 177.44414761 22.47640412 182.57977867 22.44572449 C184.46596592 22.43692038 186.35218491 22.43322657 188.23839188 22.43499184 C190.81181349 22.43664003 193.38448991 22.41998442 195.95780945 22.39872742 C196.70587111 22.40357499 197.45393277 22.40842257 198.22466296 22.41341704 C202.64384591 22.3530877 205.48635762 21.72935968 209 19 C209.33 18.34 209.66 17.68 210 17 C210.66 17 211.32 17 212 17 C212 11.72 212 6.44 212 1 C142.04 1 72.08 1 0 1 C0 0.67 0 0.34 0 0 Z " fill="#D4D4D4" transform="translate(74,245)"/>
<path d="M0 0 C0.495 1.98 0.495 1.98 1 4 C-0.10408203 4.87011719 -0.10408203 4.87011719 -1.23046875 5.7578125 C-8.83498823 11.6882444 -8.83498823 11.6882444 -15 19 C-14.505 20.485 -14.505 20.485 -14 22 C-16.77280706 25.08089673 -19.06326356 26.68775452 -23 28 C-23 28.66 -23 29.32 -23 30 C-39.77578051 39.74077578 -39.77578051 39.74077578 -49 43 C-49.8559375 43.33515625 -50.711875 43.6703125 -51.59375 44.015625 C-62.53342425 48.2280283 -73.31788144 50.29625792 -85 51 C-85 54.63 -85 58.26 -85 62 C-87 60 -87 60 -87.1953125 57.3984375 C-87.17210937 56.40070313 -87.14890625 55.40296875 -87.125 54.375 C-87.10695312 53.37210938 -87.08890625 52.36921875 -87.0703125 51.3359375 C-87.04710937 50.56507813 -87.02390625 49.79421875 -87 49 C-85.02 48.34 -83.04 47.68 -81 47 C-81 47.66 -81 48.32 -81 49 C-80.67 48.67 -80.34 48.34 -80 48 C-80 47.01 -80 46.02 -80 45 C-90.23 44.67 -100.46 44.34 -111 44 C-112 36 -112 36 -110.6875 33.125 C-108.23119008 30.03186899 -106.87442919 28.69186236 -103 28 C-101.33701556 27.86141796 -99.66846957 27.78052078 -98 27.75 C-97.154375 27.72421875 -96.30875 27.6984375 -95.4375 27.671875 C-92.49335204 28.06820261 -91.1336838 28.96509786 -89 31 C-89 31.66 -89 32.32 -89 33 C-87.515 33.495 -87.515 33.495 -86 34 C-84.39274365 37.21451269 -84.94251815 40.43612536 -85 44 C-67.8282459 41.17961067 -67.8282459 41.17961067 -51.32421875 35.87890625 C-49 35 -49 35 -45 35 C-45 34.34 -45 33.68 -45 33 C-44.15179688 32.61070312 -43.30359375 32.22140625 -42.4296875 31.8203125 C-34.88298446 28.22111566 -28.12718545 24.23918808 -21.44482422 19.20166016 C-17.17883845 16 -17.17883845 16 -15 16 C-15 15.34 -15 14.68 -15 14 C-13.29781633 12.50618709 -11.53677109 11.07902984 -9.75 9.6875 C-5.95169385 6.72823767 -2.87706767 3.87034103 0 0 Z " fill="#E8E8E8" transform="translate(279,148)"/>
<path d="M0 0 C7.92 0 15.84 0 24 0 C24 7.92 24 15.84 24 24 C31.92 24 39.84 24 48 24 C38.11795658 28.94102171 25.42144627 28.3266467 14.53833008 28.26074219 C12.43476693 28.24998602 10.33205387 28.26073763 8.22851562 28.2734375 C-0.65280333 28.28224178 -9.23639438 27.50229258 -18 26 C-19.12092041 25.8134082 -20.24184082 25.62681641 -21.39672852 25.43457031 C-22.25580811 25.29116211 -23.1148877 25.14775391 -24 25 C-24 24.67 -24 24.34 -24 24 C-16.08 24 -8.16 24 0 24 C0 16.08 0 8.16 0 0 Z " fill="#EEEEEE" transform="translate(168,312)"/>
<path d="M0 0 C0.33 0 0.66 0 1 0 C3.57725646 11.20920653 4.47612779 21.92575049 4.39111328 33.41796875 C4.3750129 35.99793328 4.39107112 38.57633209 4.41015625 41.15625 C4.42153226 51.76172586 3.37647478 61.66404896 1 72 C0.67 72 0.34 72 0 72 C0 64.08 0 56.16 0 48 C-7.92 48 -15.84 48 -24 48 C-24 40.08 -24 32.16 -24 24 C-16.08 24 -8.16 24 0 24 C0 16.08 0 8.16 0 0 Z " fill="#EEEEEE" transform="translate(336,144)"/>
<path d="M0 0 C0.33 0 0.66 0 1 0 C1 6.6 1 13.2 1 20 C8.92 20 16.84 20 25 20 C25 27.92 25 35.84 25 44 C17.08 44 9.16 44 1 44 C1 50.6 1 57.2 1 64 C-7.96609974 46.06780052 -3.5125341 18.90077875 0 0 Z " fill="#EEEEEE" transform="translate(23,148)"/>
<path d="M0 0 C0 0.33 0 0.66 0 1 C-6.6 1 -13.2 1 -20 1 C-20 8.92 -20 16.84 -20 25 C-27.92 25 -35.84 25 -44 25 C-44 17.08 -44 9.16 -44 1 C-47.63 1 -51.26 1 -55 1 C-56.65 0.67 -58.3 0.34 -60 0 C-60 -0.33 -60 -0.66 -60 -1 C-39.84053283 -4.32038283 -20.04884222 -3.72589103 0 0 Z " fill="#EEEEEE" transform="translate(212,23)"/>
<path d="M0 0 C4.95 0 9.9 0 15 0 C15 7.92 15 15.84 15 24 C22.92 24 30.84 24 39 24 C40.27491216 26.54982433 40.02596616 28.16465424 39.87890625 31.0078125 C39.83056641 31.99394531 39.78222656 32.98007812 39.73242188 33.99609375 C39.67634766 35.02863281 39.62027344 36.06117188 39.5625 37.125 C39.51029297 38.16527344 39.45808594 39.20554687 39.40429688 40.27734375 C39.27439054 42.85185116 39.13941748 45.42599296 39 48 C30.87150219 49.52768486 30.87150219 49.52768486 27.72265625 47.62109375 C27.17480469 46.90050781 26.62695312 46.17992187 26.0625 45.4375 C25.41667969 44.60992187 24.77085938 43.78234375 24.10546875 42.9296875 C23.41066406 41.96289062 22.71585938 40.99609375 22 40 C21.16358227 38.87699159 20.32630325 37.75462427 19.48828125 36.6328125 C0 10.20709705 0 10.20709705 0 0 Z " fill="#FBFBFB" transform="translate(33,240)"/>
<path d="M0 0 C7.92 0 15.84 0 24 0 C24 7.92 24 15.84 24 24 C16.08 24 8.16 24 0 24 C0 25.98 0 27.96 0 30 C-7.92 29.67 -15.84 29.34 -24 29 C-24 27.35 -24 25.7 -24 24 C-16.41 23.67 -8.82 23.34 -1 23 C-0.67 15.41 -0.34 7.82 0 0 Z " fill="#FEFEFE" transform="translate(288,216)"/>
<path d="M0 0 C0.33 0 0.66 0 1 0 C1 1.98 1 3.96 1 6 C1.69037354 5.99476318 2.38074707 5.98952637 3.09204102 5.98413086 C6.24885126 5.96322133 9.40564686 5.95029558 12.5625 5.9375 C13.64853516 5.92912109 14.73457031 5.92074219 15.85351562 5.91210938 C26.85875636 5.8786588 26.85875636 5.8786588 32 7 C33.33333333 8.33333333 34.66666667 9.66666667 36 11 C32.33333333 11 28.66666667 11 25 11 C25.19529297 12.41152344 25.19529297 12.41152344 25.39453125 13.8515625 C26.50231826 23.85270508 26.50231826 23.85270508 25.0234375 27.23046875 C22.4738 30.24977631 20.26399179 31.86930661 16.35546875 32.2734375 C7.74264541 32.54955761 7.74264541 32.54955761 3.875 29.6875 C0.28724365 24.54504924 -0.3284703 21.66654652 -0.65625 15.49609375 C-0.76736868 12.82994697 -0.76736868 12.82994697 -3 11 C-2.625 8.875 -2.625 8.875 -2 7 C-1.34 7 -0.68 7 0 7 C0 4.69 0 2.38 0 0 Z " fill="#F9F9F9" transform="translate(167,186)"/>
<path d="M0 0 C0.33 0 0.66 0 1 0 C1.06993164 0.56807373 1.13986328 1.13614746 1.21191406 1.72143555 C2.61247615 12.85950688 4.30835316 23.35854831 8 34 C8.65082032 36.18602147 9.29658106 38.37355508 9.9375 40.5625 C12.39560469 48.54411053 15.51911031 56.18566686 19.3125 63.625 C21 67 21 67 21 69 C14.35921691 71.21359436 6.98922247 69.38829014 0 69 C0 46.23 0 23.46 0 0 Z " fill="#EAEAEA" transform="translate(0,195)"/>
<path d="M0 0 C7.92 0 15.84 0 24 0 C24 7.92 24 15.84 24 24 C15.42 24 6.84 24 -2 24 C-1.505 22.515 -1.505 22.515 -1 21 C-0.93031879 17.25027965 -1.00280292 13.51144155 -1.0625 9.76171875 C-1 6 -1 6 0 0 Z " fill="#EEEEEE" transform="translate(288,240)"/>
<path d="M0 0 C6.27 0 12.54 0 19 0 C20.70767664 5.12302993 17.37580594 9.33511722 15.125 14 C12.09795721 20.52544991 9.93846379 27.08439945 8 34 C7.73445312 34.8559375 7.46890625 35.711875 7.1953125 36.59375 C3.50135884 48.93231685 1.83588937 62.17342169 1 75 C0.67 75 0.34 75 0 75 C0 50.25 0 25.5 0 0 Z " fill="#F0F0F0" transform="translate(0,96)"/>
<path d="M0 0 C0 7.92 0 15.84 0 24 C-7.92 24 -15.84 24 -24 24 C-24 16.08 -24 8.16 -24 0 C-15.95135758 -2.01216061 -8.2880903 -0.75346275 0 0 Z " fill="#FDFDFD" transform="translate(168,24)"/>
<path d="M0 0 C22.44 0 44.88 0 68 0 C68 7 68 14 68 21 C67.42894531 20.70609375 66.85789062 20.4121875 66.26953125 20.109375 C63.24744211 18.63214038 60.14642945 17.42981446 57.015625 16.203125 C54.86849702 15.34649881 52.73416458 14.45749911 50.609375 13.546875 C41.23123153 9.59608265 31.95395233 7.06705059 22 5 C21.05125 4.79632812 20.1025 4.59265625 19.125 4.3828125 C12.78475594 3.06192832 6.39250136 2.03246586 0 1 C0 0.67 0 0.34 0 0 Z " fill="#EBEBEB" transform="translate(196,0)"/>
<path d="M0 0 C7.92 0 15.84 0 24 0 C24.33 6.27 24.66 12.54 25 19 C25.66 19.33 26.32 19.66 27 20 C26 22 26 22 24 24 C21.56982422 24.22705078 21.56982422 24.22705078 18.5546875 24.1953125 C17.58515137 24.19031738 16.61561523 24.18532227 15.61669922 24.18017578 C14.38193848 24.16196777 13.14717773 24.14375977 11.875 24.125 C7.95625 24.08375 4.0375 24.0425 0 24 C0 16.08 0 8.16 0 0 Z " fill="#FEFEFE" transform="translate(48,120)"/>
<path d="M0 0 C7.92 0 15.84 0 24 0 C24 7.92 24 15.84 24 24 C20.51692708 24.22786458 17.03385417 24.45572917 13.55078125 24.68359375 C10.61819663 24.94491317 7.86558383 25.34798379 5 26 C5 25.67 5 25.34 5 25 C3.35 24.67 1.7 24.34 0 24 C0 16.08 0 8.16 0 0 Z " fill="#FEFEFE" transform="translate(72,96)"/>
<path d="M0 0 C7.92 0 15.84 0 24 0 C24.185625 2.660625 24.37125 5.32125 24.5625 8.0625 C24.62381104 8.8862915 24.68512207 9.71008301 24.74829102 10.55883789 C24.79139404 11.23164795 24.83449707 11.90445801 24.87890625 12.59765625 C24.9260376 13.27320557 24.97316895 13.94875488 25.02172852 14.64477539 C24.99278928 17.78159295 24.44363187 20.8945769 24 24 C16.08 24 8.16 24 0 24 C0 16.08 0 8.16 0 0 Z " fill="#FEFEFE" transform="translate(312,192)"/>
<path d="M0 0 C1.64355469 0.11794922 1.64355469 0.11794922 3.3203125 0.23828125 C4.58488281 0.46064453 4.58488281 0.46064453 5.875 0.6875 C7.14991216 3.23732433 6.90096616 4.85215424 6.75390625 7.6953125 C6.68925171 9.02780029 6.68925171 9.02780029 6.62329102 10.38720703 C6.56197998 11.51755371 6.50066895 12.64790039 6.4375 13.8125 C6.251875 17.40125 6.06625 20.99 5.875 24.6875 C-2.045 24.6875 -9.965 24.6875 -18.125 24.6875 C-18.125 16.7675 -18.125 8.8475 -18.125 0.6875 C-5.5946873 -0.45161934 -5.5946873 -0.45161934 0 0 Z " fill="#FEFEFE" transform="translate(210.125,23.3125)"/>
<path d="M0 0 C7.92 0 15.84 0 24 0 C24.4375 9.375 24.4375 9.375 24.56811523 12.32568359 C24.6252771 13.47544678 24.6252771 13.47544678 24.68359375 14.6484375 C24.72025146 15.43395996 24.75690918 16.21948242 24.79467773 17.02880859 C24.890891 19.07523496 24.890891 19.07523496 26 21 C25.34 21 24.68 21 24 21 C24 21.99 24 22.98 24 24 C16.08 24 8.16 24 0 24 C0 16.08 0 8.16 0 0 Z " fill="#FEFEFE" transform="translate(192,312)"/>
<path d="M0 0 C7.92 0 15.84 0 24 0 C24 7.92 24 15.84 24 24 C20.225625 24.185625 16.45125 24.37125 12.5625 24.5625 C10.77501343 24.65446655 10.77501343 24.65446655 8.95141602 24.74829102 C8.01998779 24.79139404 7.08855957 24.83449707 6.12890625 24.87890625 C5.17056885 24.9260376 4.21223145 24.97316895 3.22485352 25.02172852 C1 25 1 25 0 24 C-0.08726223 22.21928754 -0.10699041 20.4351686 -0.09765625 18.65234375 C-0.09515869 17.68031006 -0.09266113 16.70827637 -0.09008789 15.70678711 C-0.08098389 14.46292236 -0.07187988 13.21905762 -0.0625 11.9375 C-0.041875 7.998125 -0.02125 4.05875 0 0 Z " fill="#FEFEFE" transform="translate(24,192)"/>
<path d="M0 0 C7.92 0 15.84 0 24 0 C24 7.92 24 15.84 24 24 C16.08 24 8.16 24 0 24 C-1.125 17.25 -1.125 17.25 -0.87890625 13.4765625 C-0.83580322 12.76064941 -0.7927002 12.04473633 -0.74829102 11.30712891 C-0.68697998 10.42202637 -0.62566895 9.53692383 -0.5625 8.625 C-0.376875 5.77875 -0.19125 2.9325 0 0 Z " fill="#FEFEFE" transform="translate(144,312)"/>
<path d="M0 0 C7.92 0 15.84 0 24 0 C24 7.92 24 15.84 24 24 C16.08 24 8.16 24 0 24 C0 16.08 0 8.16 0 0 Z " fill="#FFFFFF" transform="translate(312,336)"/>
<path d="M0 0 C7.92 0 15.84 0 24 0 C24 7.92 24 15.84 24 24 C16.08 24 8.16 24 0 24 C0 16.08 0 8.16 0 0 Z " fill="#EEEEEE" transform="translate(48,336)"/>
<path d="M0 0 C7.92 0 15.84 0 24 0 C24 7.92 24 15.84 24 24 C16.08 24 8.16 24 0 24 C0 16.08 0 8.16 0 0 Z " fill="#FFFFFF" transform="translate(24,336)"/>
<path d="M0 0 C7.92 0 15.84 0 24 0 C24 7.92 24 15.84 24 24 C16.08 24 8.16 24 0 24 C0 16.08 0 8.16 0 0 Z " fill="#EEEEEE" transform="translate(0,336)"/>
<path d="M0 0 C7.92 0 15.84 0 24 0 C24 7.92 24 15.84 24 24 C16.08 24 8.16 24 0 24 C0 16.08 0 8.16 0 0 Z " fill="#FFFFFF" transform="translate(336,312)"/>
<path d="M0 0 C7.92 0 15.84 0 24 0 C24 7.92 24 15.84 24 24 C16.08 24 8.16 24 0 24 C0 16.08 0 8.16 0 0 Z " fill="#EEEEEE" transform="translate(24,312)"/>
<path d="M0 0 C7.92 0 15.84 0 24 0 C24 7.92 24 15.84 24 24 C16.08 24 8.16 24 0 24 C0 16.08 0 8.16 0 0 Z " fill="#FFFFFF" transform="translate(0,312)"/>
<path d="M0 0 C7.92 0 15.84 0 24 0 C24 7.92 24 15.84 24 24 C16.08 24 8.16 24 0 24 C0 16.08 0 8.16 0 0 Z " fill="#EEEEEE" transform="translate(240,288)"/>
<path d="M0 0 C7.92 0 15.84 0 24 0 C24 7.92 24 15.84 24 24 C16.08 24 8.16 24 0 24 C0 16.08 0 8.16 0 0 Z " fill="#FFFFFF" transform="translate(216,288)"/>
<path d="M0 0 C7.92 0 15.84 0 24 0 C24 7.92 24 15.84 24 24 C16.08 24 8.16 24 0 24 C0 16.08 0 8.16 0 0 Z " fill="#EEEEEE" transform="translate(192,288)"/>
<path d="M0 0 C7.92 0 15.84 0 24 0 C24 7.92 24 15.84 24 24 C16.08 24 8.16 24 0 24 C0 16.08 0 8.16 0 0 Z " fill="#FFFFFF" transform="translate(168,288)"/>
<path d="M0 0 C7.92 0 15.84 0 24 0 C24 7.92 24 15.84 24 24 C16.08 24 8.16 24 0 24 C0 16.08 0 8.16 0 0 Z " fill="#EEEEEE" transform="translate(144,288)"/>
<path d="M0 0 C7.92 0 15.84 0 24 0 C24 7.92 24 15.84 24 24 C16.08 24 8.16 24 0 24 C0 16.08 0 8.16 0 0 Z " fill="#FFFFFF" transform="translate(120,288)"/>
<path d="M0 0 C7.92 0 15.84 0 24 0 C24 7.92 24 15.84 24 24 C16.08 24 8.16 24 0 24 C0 16.08 0 8.16 0 0 Z " fill="#EEEEEE" transform="translate(0,288)"/>
<path d="M0 0 C7.92 0 15.84 0 24 0 C24 7.92 24 15.84 24 24 C16.08 24 8.16 24 0 24 C0 16.08 0 8.16 0 0 Z " fill="#EEEEEE" transform="translate(288,192)"/>
<path d="M0 0 C7.92 0 15.84 0 24 0 C24 7.92 24 15.84 24 24 C16.08 24 8.16 24 0 24 C0 16.08 0 8.16 0 0 Z " fill="#FFFFFF" transform="translate(288,168)"/>
<path d="M0 0 C7.92 0 15.84 0 24 0 C24 7.92 24 15.84 24 24 C16.08 24 8.16 24 0 24 C0 16.08 0 8.16 0 0 Z " fill="#FFFFFF" transform="translate(48,168)"/>
<path d="M0 0 C7.92 0 15.84 0 24 0 C24 7.92 24 15.84 24 24 C16.08 24 8.16 24 0 24 C0 16.08 0 8.16 0 0 Z " fill="#FFFFFF" transform="translate(312,144)"/>
<path d="M0 0 C7.92 0 15.84 0 24 0 C24 7.92 24 15.84 24 24 C16.08 24 8.16 24 0 24 C0 16.08 0 8.16 0 0 Z " fill="#EEEEEE" transform="translate(240,96)"/>
<path d="M0 0 C7.92 0 15.84 0 24 0 C24 7.92 24 15.84 24 24 C16.08 24 8.16 24 0 24 C0 16.08 0 8.16 0 0 Z " fill="#FFFFFF" transform="translate(120,96)"/>
<path d="M0 0 C7.92 0 15.84 0 24 0 C24 7.92 24 15.84 24 24 C16.08 24 8.16 24 0 24 C0 16.08 0 8.16 0 0 Z " fill="#EEEEEE" transform="translate(48,96)"/>
<path d="M0 0 C7.92 0 15.84 0 24 0 C24 7.92 24 15.84 24 24 C16.08 24 8.16 24 0 24 C0 16.08 0 8.16 0 0 Z " fill="#FFFFFF" transform="translate(240,72)"/>
<path d="M0 0 C7.92 0 15.84 0 24 0 C24 7.92 24 15.84 24 24 C16.08 24 8.16 24 0 24 C0 16.08 0 8.16 0 0 Z " fill="#EEEEEE" transform="translate(216,72)"/>
<path d="M0 0 C7.92 0 15.84 0 24 0 C24 7.92 24 15.84 24 24 C16.08 24 8.16 24 0 24 C0 16.08 0 8.16 0 0 Z " fill="#FFFFFF" transform="translate(96,72)"/>
<path d="M0 0 C7.92 0 15.84 0 24 0 C24 7.92 24 15.84 24 24 C16.08 24 8.16 24 0 24 C0 16.08 0 8.16 0 0 Z " fill="#EEEEEE" transform="translate(72,72)"/>
<path d="M0 0 C7.92 0 15.84 0 24 0 C24 7.92 24 15.84 24 24 C16.08 24 8.16 24 0 24 C0 16.08 0 8.16 0 0 Z " fill="#EEEEEE" transform="translate(336,48)"/>
<path d="M0 0 C7.92 0 15.84 0 24 0 C24 7.92 24 15.84 24 24 C16.08 24 8.16 24 0 24 C0 16.08 0 8.16 0 0 Z " fill="#EEEEEE" transform="translate(240,48)"/>
<path d="M0 0 C7.92 0 15.84 0 24 0 C24 7.92 24 15.84 24 24 C16.08 24 8.16 24 0 24 C0 16.08 0 8.16 0 0 Z " fill="#FFFFFF" transform="translate(216,48)"/>
<path d="M0 0 C7.92 0 15.84 0 24 0 C24 7.92 24 15.84 24 24 C16.08 24 8.16 24 0 24 C0 16.08 0 8.16 0 0 Z " fill="#FFFFFF" transform="translate(168,48)"/>
<path d="M0 0 C7.92 0 15.84 0 24 0 C24 7.92 24 15.84 24 24 C16.08 24 8.16 24 0 24 C0 16.08 0 8.16 0 0 Z " fill="#FFFFFF" transform="translate(120,48)"/>
<path d="M0 0 C7.92 0 15.84 0 24 0 C24 7.92 24 15.84 24 24 C16.08 24 8.16 24 0 24 C0 16.08 0 8.16 0 0 Z " fill="#EEEEEE" transform="translate(0,48)"/>
<path d="M0 0 C7.92 0 15.84 0 24 0 C24 7.92 24 15.84 24 24 C16.08 24 8.16 24 0 24 C0 16.08 0 8.16 0 0 Z " fill="#FFFFFF" transform="translate(336,24)"/>
<path d="M0 0 C7.92 0 15.84 0 24 0 C24 7.92 24 15.84 24 24 C16.08 24 8.16 24 0 24 C0 16.08 0 8.16 0 0 Z " fill="#EEEEEE" transform="translate(312,24)"/>
<path d="M0 0 C7.92 0 15.84 0 24 0 C24 7.92 24 15.84 24 24 C16.08 24 8.16 24 0 24 C0 16.08 0 8.16 0 0 Z " fill="#EEEEEE" transform="translate(24,24)"/>
<path d="M0 0 C7.92 0 15.84 0 24 0 C24 7.92 24 15.84 24 24 C16.08 24 8.16 24 0 24 C0 16.08 0 8.16 0 0 Z " fill="#FFFFFF" transform="translate(0,24)"/>
<path d="M0 0 C7.92 0 15.84 0 24 0 C24 7.92 24 15.84 24 24 C16.08 24 8.16 24 0 24 C0 16.08 0 8.16 0 0 Z " fill="#EEEEEE" transform="translate(336,0)"/>
<path d="M0 0 C7.92 0 15.84 0 24 0 C24 7.92 24 15.84 24 24 C16.08 24 8.16 24 0 24 C0 16.08 0 8.16 0 0 Z " fill="#FFFFFF" transform="translate(312,0)"/>
<path d="M0 0 C7.92 0 15.84 0 24 0 C24 7.92 24 15.84 24 24 C16.08 24 8.16 24 0 24 C0 16.08 0 8.16 0 0 Z " fill="#EEEEEE" transform="translate(288,0)"/>
<path d="M0 0 C7.92 0 15.84 0 24 0 C24 7.92 24 15.84 24 24 C16.08 24 8.16 24 0 24 C0 16.08 0 8.16 0 0 Z " fill="#EEEEEE" transform="translate(48,0)"/>
<path d="M0 0 C7.92 0 15.84 0 24 0 C24 7.92 24 15.84 24 24 C16.08 24 8.16 24 0 24 C0 16.08 0 8.16 0 0 Z " fill="#EEEEEE" transform="translate(0,0)"/>
<path d="M0 0 C0.80211914 0.04809814 1.60423828 0.09619629 2.43066406 0.14575195 C3.43838867 0.225271 4.44611328 0.30479004 5.484375 0.38671875 C8.701875 0.61359375 11.919375 0.84046875 15.234375 1.07421875 C15.234375 8.99421875 15.234375 16.91421875 15.234375 25.07421875 C7.314375 25.07421875 -0.605625 25.07421875 -8.765625 25.07421875 C-8.848125 21.50609375 -8.930625 17.93796875 -9.015625 14.26171875 C-9.05204102 13.14047607 -9.08845703 12.0192334 -9.12597656 10.86401367 C-9.1359668 9.97818604 -9.14595703 9.0923584 -9.15625 8.1796875 C-9.17719727 7.27371826 -9.19814453 6.36774902 -9.21972656 5.43432617 C-8.765625 3.07421875 -8.765625 3.07421875 -7.0390625 1.25976562 C-4.39357381 -0.11979763 -2.95634966 -0.20846055 0 0 Z " fill="#FEFEFE" transform="translate(32.765625,142.92578125)"/>
<path d="M0 0 C23.76 0 47.52 0 72 0 C72 0.33 72 0.66 72 1 C71.030625 1.10957031 70.06125 1.21914063 69.0625 1.33203125 C46.83876816 3.92055113 26.64774266 9.36643506 6 18 C4.33456789 18.66974482 2.66838486 19.33764496 1 20 C0.67 19.67 0.34 19.34 0 19 C0 12.73 0 6.46 0 0 Z " fill="#ECECEC" transform="translate(96,0)"/>
<path d="M0 0 C7.92 0 15.84 0 24 0 C24.268125 3.2175 24.53625 6.435 24.8125 9.75 C24.91022705 10.75772461 25.0079541 11.76544922 25.10864258 12.80371094 C25.54353418 19.37393969 25.54353418 19.37393969 22.76171875 22.578125 C17.65871011 25.20541658 13.37940337 24.99452662 7.75 24.5625 C5.1925 24.376875 2.635 24.19125 0 24 C0 16.08 0 8.16 0 0 Z " fill="#FEFEFE" transform="translate(72,0)"/>
<path d="M0 0 C7.26 0 14.52 0 22 0 C23.87225366 3.74450732 24.24550933 4.85027191 24.1953125 8.765625 C24.19031738 9.56774414 24.18532227 10.36986328 24.18017578 11.19628906 C24.15286377 12.70787598 24.15286377 12.70787598 24.125 14.25 C24.08375 17.4675 24.0425 20.685 24 24 C16.08 24 8.16 24 0 24 C0 16.08 0 8.16 0 0 Z " fill="#FDFDFD" transform="translate(0,264)"/>
<path d="M0 0 C0.99 0.495 0.99 0.495 2 1 C1.67 1.99 1.34 2.98 1 4 C0.67 9.61 0.34 15.22 0 21 C-21.78 21 -43.56 21 -66 21 C-66 20.67 -66 20.34 -66 20 C-65.46375 19.97421875 -64.9275 19.9484375 -64.375 19.921875 C-56.75919962 19.37073155 -49.55777682 17.56126861 -42.21337891 15.59130859 C-39.930634 14.98146873 -37.64335642 14.39100378 -35.35546875 13.80078125 C-26.81832477 11.55936893 -18.91670319 8.97053114 -11 5 C-8.98426211 4.0309949 -6.96342362 3.072525 -4.9375 2.125 C-3.58978516 1.47917969 -3.58978516 1.47917969 -2.21484375 0.8203125 C-1.11849609 0.41425781 -1.11849609 0.41425781 0 0 Z " fill="#E9E9E9" transform="translate(264,339)"/>
<path d="M0 0 C0.33 0 0.66 0 1 0 C1 21.78 1 43.56 1 66 C-5.33333333 66 -11.66666667 66 -18 66 C-18.33 65.34 -18.66 64.68 -19 64 C-18.09176973 61.56442428 -17.13171929 59.23804483 -16.0625 56.875 C-15.77181641 56.21628906 -15.48113281 55.55757812 -15.18164062 54.87890625 C-14.46139802 53.24950495 -13.73158857 51.62433868 -13 50 C-12.34 50 -11.68 50 -11 50 C-10.88398438 48.83984375 -10.76796875 47.6796875 -10.6484375 46.484375 C-10.11241095 42.20744733 -8.99412449 38.32452256 -7.625 34.25 C-3.97165453 22.92344674 -1.48745393 11.82963359 0 0 Z " fill="#E9E9E9" transform="translate(359,198)"/>
<path d="M0 0 C3.18808548 1.26936793 6.37535935 2.54076184 9.5625 3.8125 C10.45775391 4.16892578 11.35300781 4.52535156 12.27539062 4.89257812 C16.12403584 6.42921669 19.96376986 7.96924987 23.7578125 9.63671875 C37.43350998 15.38710239 52.37865253 17.2342165 67 19 C67 19.33 67 19.66 67 20 C44.56 20 22.12 20 -1 20 C-1 2 -1 2 0 0 Z " fill="#EAEAEA" transform="translate(97,340)"/>
<path d="M0 0 C7.92 0 15.84 0 24 0 C24 6.6 24 13.2 24 20 C29.94 20 35.88 20 42 20 C42 20.33 42 20.66 42 21 C22.2 21 2.4 21 -18 21 C-18 20.67 -18 20.34 -18 20 C-12.06 20 -6.12 20 0 20 C0 13.4 0 6.8 0 0 Z " fill="#E3E3E3" transform="translate(168,72)"/>
<path d="M0 0 C0 21.12 0 42.24 0 64 C-0.33 64 -0.66 64 -1 64 C-1.14695312 62.86046875 -1.29390625 61.7209375 -1.4453125 60.546875 C-3.55314379 45.28708863 -7.03512539 30.30719516 -13.8359375 16.3984375 C-16.24942926 11.4256726 -18.2526442 6.24206741 -20 1 C-14.02970315 -1.98514842 -6.6749948 0 0 0 Z " fill="#EAEAEA" transform="translate(360,96)"/>
<path d="M0 0 C7.92 0 15.84 0 24 0 C24 6.6 24 13.2 24 20 C15.0625 20.4375 15.0625 20.4375 12.24243164 20.56811523 C11.14983032 20.6252771 11.14983032 20.6252771 10.03515625 20.68359375 C8.91185913 20.73858032 8.91185913 20.73858032 7.76586914 20.79467773 C5.97538674 20.81771063 5.97538674 20.81771063 5 22 C4.84417697 23.34015221 4.74955858 24.68758903 4.68359375 26.03515625 C4.64169922 26.84404297 4.59980469 27.65292969 4.55664062 28.48632812 C4.51732422 29.33646484 4.47800781 30.18660156 4.4375 31.0625 C4.39431641 31.91650391 4.35113281 32.77050781 4.30664062 33.65039062 C4.20023298 35.76672037 4.09958269 37.88333813 4 40 C3.34 40 2.68 40 2 40 C2 34.72 2 29.44 2 24 C1.34 24 0.68 24 0 24 C0 16.08 0 8.16 0 0 Z " fill="#FDFDFD" transform="translate(144,72)"/>
<path d="M0 0 C2.14593645 3.21890467 3.22567573 6.16435827 4.5 9.8125 C5.13421875 11.61654297 5.13421875 11.61654297 5.78125 13.45703125 C6.1834375 14.62621094 6.585625 15.79539063 7 17 C7.3815625 18.05574219 7.763125 19.11148438 8.15625 20.19921875 C9 23 9 23 9 27 C1.08 27 -6.84 27 -15 27 C-15 19.08 -15 11.16 -15 3 C-10.05 3 -5.1 3 0 3 C0 2.01 0 1.02 0 0 Z " fill="#EAEAEA" transform="translate(327,117)"/>
<path d="M0 0 C7.92 0 15.84 0 24 0 C22.71086891 6.44565545 21.60517737 11.63873443 19.375 17.625 C18.92898438 18.83414063 18.48296875 20.04328125 18.0234375 21.2890625 C17.68570312 22.18367188 17.34796875 23.07828125 17 24 C10.72368182 25.2279753 6.84220706 24.68422071 0 24 C0 16.08 0 8.16 0 0 Z " fill="#EDEDED" transform="translate(312,216)"/>
<path d="M0 0 C7.92 0 15.84 0 24 0 C24 7.92 24 15.84 24 24 C6.85714286 19.85714286 6.85714286 19.85714286 0 17 C0 11.39 0 5.78 0 0 Z " fill="#EBEBEB" transform="translate(120,312)"/>
<path d="M0 0 C0 7.59 0 15.18 0 23 C-7.92 23 -15.84 23 -24 23 C-24 18.38 -24 13.76 -24 9 C-24.66 9 -25.32 9 -26 9 C-26.33 9.66 -26.66 10.32 -27 11 C-27.99 10.34 -28.98 9.68 -30 9 C-20.39374635 4.30275372 -10.81335446 0 0 0 Z " fill="#E9E9E9" transform="translate(144,25)"/>
<path d="M0 0 C7.92 0 15.84 0 24 0 C24 5.61 24 11.22 24 17 C15.79490578 20.05679981 8.67701049 22.2645979 0 24 C0 16.08 0 8.16 0 0 Z " fill="#EDEDED" transform="translate(216,312)"/>
<path d="M0 0 C0.33 0.66 0.66 1.32 1 2 C1.61875 1.814375 2.2375 1.62875 2.875 1.4375 C6 1 6 1 16 2 C16 9.92 16 17.84 16 26 C6.25 25.875 6.25 25.875 3.19628906 25.81982422 C2.39416992 25.8148291 1.59205078 25.80983398 0.765625 25.8046875 C-0.05131836 25.79421387 -0.86826172 25.78374023 -1.70996094 25.77294922 C-4.21887518 26.02170084 -5.83395625 26.74299871 -8 28 C-6.71937256 20.3836368 -4.54610919 13.28028096 -2 6 C-1.33054458 4.00093174 -0.66311322 2.00118098 0 0 Z " fill="#EAEAEA" transform="translate(32,118)"/>
<path d="M0 0 C7.64493872 0.52124582 15.51711391 2.85664279 22.41015625 6.15234375 C24 8 24 8 24.171875 11.57421875 C24.05636425 12.94765631 23.91051577 14.31859235 23.75 15.6875 C23.5025 18.100625 23.255 20.51375 23 23 C15.08 23 7.16 23 -1 23 C-1.020625 19.390625 -1.04125 15.78125 -1.0625 12.0625 C-1.071604 10.92304932 -1.08070801 9.78359863 -1.09008789 8.60961914 C-1.09258545 7.71879639 -1.09508301 6.82797363 -1.09765625 5.91015625 C-1.10289307 4.99371338 -1.10812988 4.07727051 -1.11352539 3.13305664 C-1 1 -1 1 0 0 Z " fill="#EBEBEB" transform="translate(217,25)"/>
<path d="M0 0 C7.26 0 14.52 0 22 0 C22 7.92 22 15.84 22 24 C16.72 24.33 11.44 24.66 6 25 C3.9346455 20.18083949 2.20558061 15.79297545 0.75 10.8125 C0.21632813 9.02779297 0.21632813 9.02779297 -0.328125 7.20703125 C-1 4 -1 4 0 0 Z " fill="#ECECEC" transform="translate(26,216)"/>
<path d="M0 0 C7.92 0 15.84 0 24 0 C24 6.27 24 12.54 24 19 C16.08 19 8.16 19 0 19 C0 12.73 0 6.46 0 0 Z " fill="#FEFEFE" transform="translate(240,269)"/>
<path d="M0 0 C7.92 0 15.84 0 24 0 C24 6.27 24 12.54 24 19 C16.08 19 8.16 19 0 19 C0 12.73 0 6.46 0 0 Z " fill="#EEEEEE" transform="translate(216,269)"/>
<path d="M0 0 C7.92 0 15.84 0 24 0 C24 6.27 24 12.54 24 19 C16.08 19 8.16 19 0 19 C0 12.73 0 6.46 0 0 Z " fill="#FEFEFE" transform="translate(192,269)"/>
<path d="M0 0 C7.92 0 15.84 0 24 0 C24 6.27 24 12.54 24 19 C16.08 19 8.16 19 0 19 C0 12.73 0 6.46 0 0 Z " fill="#EEEEEE" transform="translate(168,269)"/>
<path d="M0 0 C7.92 0 15.84 0 24 0 C24 6.27 24 12.54 24 19 C16.08 19 8.16 19 0 19 C0 12.73 0 6.46 0 0 Z " fill="#FEFEFE" transform="translate(144,269)"/>
<path d="M0 0 C7.92 0 15.84 0 24 0 C24 6.27 24 12.54 24 19 C16.08 19 8.16 19 0 19 C0 12.73 0 6.46 0 0 Z " fill="#FEFEFE" transform="translate(96,269)"/>
<path d="M0 0 C1.2684375 -0.03867188 1.2684375 -0.03867188 2.5625 -0.078125 C5.50664796 0.31820261 6.8663162 1.21509786 9 3.25 C9 3.91 9 4.57 9 5.25 C9.99 5.58 10.98 5.91 12 6.25 C12 9.55 12 12.85 12 16.25 C3.75 16.25 -4.5 16.25 -13 16.25 C-14 8.25 -14 8.25 -12.6875 5.375 C-8.89264545 0.59629427 -5.95111898 0.10886193 0 0 Z " fill="#EBEBEB" transform="translate(181,175.75)"/>
<path d="M0 0 C3.57770876 7.15541753 0.36326129 16.00825168 0 24 C20.79 24 41.58 24 63 24 C63 24.33 63 24.66 63 25 C42.54 25 22.08 25 1 25 C1 25.66 1 26.32 1 27 C43.24 27 85.48 27 129 27 C129 27.33 129 27.66 129 28 C64.32 28 -0.36 28 -67 28 C-67 27.67 -67 27.34 -67 27 C-46.54 27 -26.08 27 -5 27 C-5 19.08 -5 11.16 -5 3 C-4.34 3 -3.68 3 -3 3 C-3 8.28 -3 13.56 -3 19 C-2.34 19 -1.68 19 -1 19 C-1.01160156 17.71222656 -1.02320313 16.42445312 -1.03515625 15.09765625 C-1.0445327 13.41927228 -1.05363305 11.74088674 -1.0625 10.0625 C-1.07087891 9.21236328 -1.07925781 8.36222656 -1.08789062 7.48632812 C-1.09111328 6.67744141 -1.09433594 5.86855469 -1.09765625 5.03515625 C-1.10289307 4.2862915 -1.10812988 3.53742676 -1.11352539 2.76586914 C-1 1 -1 1 0 0 Z " fill="#979797" transform="translate(149,93)"/>
<path d="M0 0 C0.66 0.33 1.32 0.66 2 1 C1.34 1.99 0.68 2.98 0 4 C1.32 4.66 2.64 5.32 4 6 C-8.49481405 12.49268628 -22.05677142 15.16004647 -36 16 C-36 19.63 -36 23.26 -36 27 C-38 25 -38 25 -38.1953125 22.3984375 C-38.17210937 21.40070313 -38.14890625 20.40296875 -38.125 19.375 C-38.10695312 18.37210938 -38.08890625 17.36921875 -38.0703125 16.3359375 C-38.04710937 15.56507813 -38.02390625 14.79421875 -38 14 C-36.02 13.34 -34.04 12.68 -32 12 C-32 12.66 -32 13.32 -32 14 C-31.67 13.67 -31.34 13.34 -31 13 C-31 12.01 -31 11.02 -31 10 C-33.31 10 -35.62 10 -38 10 C-37.67 7.03 -37.34 4.06 -37 1 C-36.67 1 -36.34 1 -36 1 C-36 3.64 -36 6.28 -36 9 C-18.75785871 6.16965763 -18.75785871 6.16965763 -2.19921875 0.81640625 C-1.47347656 0.54699219 -0.74773437 0.27757812 0 0 Z " fill="#E2E2E2" transform="translate(230,183)"/>
<path d="M0 0 C0.66 0 1.32 0 2 0 C2 4.62 2 9.24 2 14 C-7.57 14 -17.14 14 -27 14 C-23.93564171 10.93564171 -20.80154632 9.0173204 -17.0625 6.9375 C-16.44181641 6.58623047 -15.82113281 6.23496094 -15.18164062 5.87304688 C-6.27851913 0.85733732 -6.27851913 0.85733732 -1 1 C-0.67 0.67 -0.34 0.34 0 0 Z " fill="#F5F5F5" transform="translate(118,34)"/>
<path d="M0 0 C1.32 0.33 2.64 0.66 4 1 C4 8.92 4 16.84 4 25 C-17.78 25 -39.56 25 -62 25 C-62 24.34 -62 23.68 -62 23 C-41.54 23 -21.08 23 0 23 C0 15.41 0 7.82 0 0 Z " fill="#F0F0F0" transform="translate(212,95)"/>
<path d="M0 0 C23.76 0 47.52 0 72 0 C62.11795658 4.94102171 49.42144627 4.3266467 38.53833008 4.26074219 C36.43476693 4.24998602 34.33205387 4.26073763 32.22851562 4.2734375 C23.34719667 4.28224178 14.76360562 3.50229258 6 2 C4.87907959 1.8134082 3.75815918 1.62681641 2.60327148 1.43457031 C1.3146521 1.21945801 1.3146521 1.21945801 0 1 C0 0.67 0 0.34 0 0 Z " fill="#FCFCFC" transform="translate(144,336)"/>
<path d="M0 0 C0.33 0 0.66 0 1 0 C3.57725646 11.20920653 4.47612779 21.92575049 4.39111328 33.41796875 C4.3750129 35.99793328 4.39107112 38.57633209 4.41015625 41.15625 C4.42153226 51.76172586 3.37647478 61.66404896 1 72 C0.67 72 0.34 72 0 72 C0 48.24 0 24.48 0 0 Z " fill="#F6F6F6" transform="translate(336,144)"/>
<path d="M0 0 C15.84 0 31.68 0 48 0 C48 0.33 48 0.66 48 1 C47.030625 1.10957031 46.06125 1.21914063 45.0625 1.33203125 C31.31485058 2.93575049 18.00769087 5.1310441 4.79296875 9.328125 C2 10 2 10 -1 9 C-0.67 6.03 -0.34 3.06 0 0 Z " fill="#F8F8F8" transform="translate(120,0)"/>
<path d="M0 0 C4.33929919 0.40178696 8.23709543 1.00288234 12.375 2.375 C22.54074057 5.59520354 33.44179436 6.7311 44 8 C44 8.33 44 8.66 44 9 C29.48 9 14.96 9 0 9 C0 6.03 0 3.06 0 0 Z " fill="#F8F8F8" transform="translate(120,351)"/>
<path d="M0 0 C0.33 0 0.66 0 1 0 C1 21.12 1 42.24 1 64 C-7.96609974 46.06780052 -3.5125341 18.90077875 0 0 Z " fill="#E0E0E0" transform="translate(23,148)"/>
<path d="M0 0 C2.97 0 5.94 0 9 0 C9 13.2 9 26.4 9 40 C8.67 40 8.34 40 8 40 C7.84144531 38.82566406 7.68289063 37.65132812 7.51953125 36.44140625 C6.20147879 27.18989643 4.49693882 18.33806814 1.6262207 9.43383789 C0.54724687 6.06395445 0 3.58856944 0 0 Z " fill="#F8F8F8" transform="translate(351,120)"/>
<path d="M0 0 C0 0.33 0 0.66 0 1 C-7.7412852 1.02535676 -15.48255969 1.04286976 -23.22387695 1.05493164 C-25.85734457 1.05996013 -28.49080939 1.06678375 -31.12426758 1.07543945 C-34.90967498 1.08756988 -38.69504546 1.09324318 -42.48046875 1.09765625 C-43.65772018 1.10281754 -44.83497162 1.10797882 -46.04789734 1.11329651 C-47.69904289 1.11340981 -47.69904289 1.11340981 -49.38354492 1.11352539 C-50.34951096 1.115746 -51.31547699 1.11796661 -52.31071472 1.12025452 C-54.9718515 1.00125869 -57.40726491 0.59468968 -60 0 C-60 -0.33 -60 -0.66 -60 -1 C-39.84053283 -4.32038283 -20.04884222 -3.72589103 0 0 Z " fill="#FEFEFE" transform="translate(212,23)"/>
<path d="M0 0 C3.57770876 7.15541753 0.36326129 16.00825168 0 24 C20.79 24 41.58 24 63 24 C63 24.33 63 24.66 63 25 C42.54 25 22.08 25 1 25 C1 25.66 1 26.32 1 27 C-0.98 27 -2.96 27 -5 27 C-5 19.08 -5 11.16 -5 3 C-4.34 3 -3.68 3 -3 3 C-3 8.28 -3 13.56 -3 19 C-2.34 19 -1.68 19 -1 19 C-1.01160156 17.71222656 -1.02320313 16.42445312 -1.03515625 15.09765625 C-1.0445327 13.41927228 -1.05363305 11.74088674 -1.0625 10.0625 C-1.07087891 9.21236328 -1.07925781 8.36222656 -1.08789062 7.48632812 C-1.09111328 6.67744141 -1.09433594 5.86855469 -1.09765625 5.03515625 C-1.10289307 4.2862915 -1.10812988 3.53742676 -1.11352539 2.76586914 C-1 1 -1 1 0 0 Z " fill="#B9B9B9" transform="translate(149,93)"/>
<path d="M0 0 C7.78808563 0.51648735 15.34925042 1.44876534 23 3 C22.01 3.495 22.01 3.495 21 4 C20.34444881 6.52733235 20.34444881 6.52733235 20 9 C11.74995242 9.50510495 0.96324937 8.64216625 -6 4 C-2.37 4.33 1.26 4.66 5 5 C2.525 4.01 2.525 4.01 0 3 C0 2.01 0 1.02 0 0 Z " fill="#DDDDDD" transform="translate(144,189)"/>
<path d="M0 0 C0.33 0.66 0.66 1.32 1 2 C1.66 2.33 2.32 2.66 3 3 C2.01 3.66 1.02 4.32 0 5 C-0.38394667 7.77262255 -0.60342248 10.34323528 -0.6875 13.125 C-0.72166016 13.87910156 -0.75582031 14.63320313 -0.79101562 15.41015625 C-0.87354278 17.27291201 -0.93844711 19.13643326 -1 21 C-1.66386719 21.02578125 -2.32773437 21.0515625 -3.01171875 21.078125 C-8.54441741 21.43351002 -11.96566075 21.83118278 -16 26 C-14.50079488 22.88626628 -12.91847864 19.87771795 -11 17 C-10.34 17 -9.68 17 -9 17 C-8.79375 16.195625 -8.5875 15.39125 -8.375 14.5625 C-6.83664339 10.57675787 -4.76845219 7.44462075 -2.33984375 3.953125 C-0.96571923 2.04576051 -0.96571923 2.04576051 0 0 Z " fill="#DADADA" transform="translate(337,267)"/>
<path d="M0 0 C7.92 0 15.84 0 24 0 C24 1.65 24 3.3 24 5 C16.08 5 8.16 5 0 5 C0 3.35 0 1.7 0 0 Z " fill="#EEEEEE" transform="translate(240,240)"/>
<path d="M0 0 C7.92 0 15.84 0 24 0 C24 1.65 24 3.3 24 5 C16.08 5 8.16 5 0 5 C0 3.35 0 1.7 0 0 Z " fill="#EEEEEE" transform="translate(192,240)"/>
<path d="M0 0 C7.92 0 15.84 0 24 0 C24 1.65 24 3.3 24 5 C16.08 5 8.16 5 0 5 C0 3.35 0 1.7 0 0 Z " fill="#EEEEEE" transform="translate(144,240)"/>
<path d="M0 0 C7.92 0 15.84 0 24 0 C24 1.65 24 3.3 24 5 C16.08 5 8.16 5 0 5 C0 3.35 0 1.7 0 0 Z " fill="#EEEEEE" transform="translate(96,240)"/>
<path d="M0 0 C2.9600177 3.70002212 5.63572891 7.31891088 8.25 11.25 C8.95640625 12.30703125 9.6628125 13.3640625 10.390625 14.453125 C12 17 12 17 12 18 C8.04 18 4.08 18 0 18 C0 12.06 0 6.12 0 0 Z " fill="#E7E7E7" transform="translate(24,270)"/>
<path d="M0 0 C5.28 0 10.56 0 16 0 C16 0.66 16 1.32 16 2 C14.11318498 3.40414141 12.16370061 4.72472938 10.1875 6 C9.10855469 6.70125 8.02960938 7.4025 6.91796875 8.125 C5.95503906 8.74375 4.99210937 9.3625 4 10 C3.01 10.66 2.02 11.32 1 12 C-1.83022097 8.00439392 -0.76210446 4.57262677 0 0 Z " fill="#EDEDED" transform="translate(72,24)"/>
<path d="M0 0 C0.66 0.33 1.32 0.66 2 1 C2 4.3 2 7.6 2 11 C-3.61 11 -9.22 11 -15 11 C-12.61318325 8.61318325 -10.7414492 7.05776184 -7.9375 5.3125 C-7.24527344 4.87550781 -6.55304688 4.43851562 -5.83984375 3.98828125 C-4 3 -4 3 -2 3 C-2 2.34 -2 1.68 -2 1 C-1.34 0.67 -0.68 0.34 0 0 Z " fill="#E5E5E5" transform="translate(286,325)"/>
<path d="M0 0 C3.96 0 7.92 0 12 0 C12 4.95 12 9.9 12 15 C11.01 15.495 11.01 15.495 10 16 C9.44570313 15.07316406 8.89140625 14.14632812 8.3203125 13.19140625 C7.58880774 11.98160991 6.85702232 10.77198324 6.125 9.5625 C5.76019531 8.95083984 5.39539063 8.33917969 5.01953125 7.70898438 C3.07848134 4.28457343 3.07848134 4.28457343 0 2 C0 1.34 0 0.68 0 0 Z " fill="#E3E3E3" transform="translate(324,72)"/>
<path d="M0 0 C3.3 0 6.6 0 10 0 C10 4.84260662 8.72729126 6.32951881 6 10.25 C5.2575 11.32765625 4.515 12.4053125 3.75 13.515625 C3.1725 14.33546875 2.595 15.1553125 2 16 C-0.14336161 12.5233662 -0.21277626 9.78770805 -0.125 5.75 C-0.10695313 4.67234375 -0.08890625 3.5946875 -0.0703125 2.484375 C-0.04710938 1.66453125 -0.02390625 0.8446875 0 0 Z " fill="#E7E7E7" transform="translate(24,72)"/>
<path d="M0 0 C0.73605469 0.47050781 1.47210938 0.94101562 2.23046875 1.42578125 C3.20628906 2.04839844 4.18210937 2.67101562 5.1875 3.3125 C6.15042969 3.92738281 7.11335938 4.54226563 8.10546875 5.17578125 C10.00448707 6.37259847 11.92369222 7.53808537 13.86328125 8.66796875 C14.92095703 9.32732422 14.92095703 9.32732422 16 10 C16 10.33 16 10.66 16 11 C10.39 11 4.78 11 -1 11 C-1.125 2.25 -1.125 2.25 0 0 Z " fill="#E7E7E7" transform="translate(73,325)"/>
<path d="M0 0 C0.66 0.33 1.32 0.66 2 1 C1.01 2.485 1.01 2.485 0 4 C1.32 4.66 2.64 5.32 4 6 C-1.7143875 9.33339271 -7.54711078 10.6132223 -14 9 C-14 8.34 -14 7.68 -14 7 C-15.98 7 -17.96 7 -20 7 C-16.89034122 4.92689415 -14.73197485 4.32753538 -11.125 3.5 C-8.02460858 2.78512278 -5.17895913 2.07503102 -2.2421875 0.84375 C-1.50226563 0.5653125 -0.76234375 0.286875 0 0 Z " fill="#D1D1D1" transform="translate(230,183)"/>
<path d="M0 0 C1.299375 0.31710938 1.299375 0.31710938 2.625 0.640625 C3.49125 0.84171875 4.3575 1.0428125 5.25 1.25 C7.05862937 1.73785398 8.84785973 2.29824491 10.625 2.890625 C10.625 4.210625 10.625 5.530625 10.625 6.890625 C11.8315625 7.07625 11.8315625 7.07625 13.0625 7.265625 C13.908125 7.471875 14.75375 7.678125 15.625 7.890625 C15.955 8.550625 16.285 9.210625 16.625 9.890625 C8.27218706 8.99568076 1.45587393 8.01378045 -5.375 2.890625 C-3.60387407 0.58350044 -2.9850596 -0.13746985 0 0 Z " fill="#EBEBEB" transform="translate(133.375,185.109375)"/>
<path d="M0 0 C4.23429756 1.31061591 8.07407404 2.94356259 12 5 C11.773125 5.763125 11.54625 6.52625 11.3125 7.3125 C11.1578125 8.6428125 11.1578125 8.6428125 11 10 C12.33378575 11.8354799 12.33378575 11.8354799 14 13 C8.55123997 11.27933894 3.28830549 9.15294651 -2 7 C-1.34 6.67 -0.68 6.34 0 6 C0 4.02 0 2.04 0 0 Z " fill="#E1E1E1" transform="translate(120,179)"/>
<path d="M0 0 C4.37436651 0.50864727 7.40096719 1.42926228 11 4 C11.33 4.66 11.66 5.32 12 6 C12.99 5.67 13.98 5.34 15 5 C15 4.34 15 3.68 15 3 C14.34 2.67 13.68 2.34 13 2 C13.33 1.34 13.66 0.68 14 0 C15.32 0 16.64 0 18 0 C18.22162329 1.62324086 18.42689803 3.248721 18.625 4.875 C18.79902344 6.23238281 18.79902344 6.23238281 18.9765625 7.6171875 C18.98429687 8.40351562 18.99203125 9.18984375 19 10 C18.34 10.66 17.68 11.32 17 12 C14.16302122 10.19315697 11.33105592 8.37860662 8.5 6.5625 C7.28376953 5.7880957 7.28376953 5.7880957 6.04296875 4.99804688 C5.27597656 4.50498047 4.50898438 4.01191406 3.71875 3.50390625 C3.00654297 3.04830322 2.29433594 2.5927002 1.56054688 2.12329102 C1.04556641 1.75260498 0.53058594 1.38191895 0 1 C0 0.67 0 0.34 0 0 Z " fill="#E5E5E5" transform="translate(270,24)"/>
<path d="M0 0 C0.66 0.33 1.32 0.66 2 1 C0.41856529 2.43958847 -1.16522779 3.87658645 -2.75 5.3125 C-3.63171875 6.11300781 -4.5134375 6.91351563 -5.421875 7.73828125 C-11.41968912 13 -11.41968912 13 -14 13 C-14.23976563 13.56847656 -14.47953125 14.13695312 -14.7265625 14.72265625 C-16.25845159 17.46220023 -18.11093429 19.26745695 -20.375 21.4375 C-22.92118081 23.91420236 -25.22128852 26.27802917 -27.4375 29.0625 C-27.953125 29.701875 -28.46875 30.34125 -29 31 C-29.66 31 -30.32 31 -31 31 C-29.64763423 28.06120516 -28.10057341 25.70767089 -26 23.25 C-25.484375 22.63640625 -24.96875 22.0228125 -24.4375 21.390625 C-23 20 -23 20 -21 20 C-20.67 19.01 -20.34 18.02 -20 17 C-18.46875 15.45703125 -18.46875 15.45703125 -16.5 13.8125 C-12.59721164 10.50743598 -8.78010083 7.12225013 -4.98046875 3.69921875 C-3 2 -3 2 0 0 Z " fill="#333333" transform="translate(72,36)"/>
<path d="M0 0 C1.98 0 3.96 0 6 0 C6.33 0.99 6.66 1.98 7 3 C6.0409375 4.0209375 6.0409375 4.0209375 5.0625 5.0625 C2.09947391 9.28256746 2.42497668 12.9890825 3 18 C3.85060013 20.97980201 3.85060013 20.97980201 5 23 C4.34 23 3.68 23 3 23 C3 22.01 3 21.02 3 20 C2.01 19.67 1.02 19.34 0 19 C0 12.73 0 6.46 0 0 Z " fill="#E6E6E6" transform="translate(72,120)"/>
<path d="M0 0 C7.92 0 15.84 0 24 0 C24 0.99 24 1.98 24 3 C25.65 3 27.3 3 29 3 C29 3.33 29 3.66 29 4 C19.162231 4.33923341 9.67400362 2.6294604 0 1 C0 0.67 0 0.34 0 0 Z " fill="#D2D2D2" transform="translate(144,336)"/>
<path d="M0 0 C0 0.33 0 0.66 0 1 C-7.92 1.33 -15.84 1.66 -24 2 C-24 2.66 -24 3.32 -24 4 C-25.7290774 4.02725341 -27.45828176 4.04650987 -29.1875 4.0625 C-30.63189453 4.07990234 -30.63189453 4.07990234 -32.10546875 4.09765625 C-34.85576513 4.00486622 -37.32479591 3.62111685 -40 3 C-40 2.67 -40 2.34 -40 2 C-26.64779643 -0.19918647 -13.50347777 -0.21987126 0 0 Z " fill="#B6B6B6" transform="translate(192,20)"/>
<path d="M0 0 C0 3 0 3 -2.375 5.5625 C-3.674375 6.7690625 -3.674375 6.7690625 -5 8 C-7.34973818 9.89755144 -7.34973818 9.89755144 -7.125 13.125 C-7.063125 14.548125 -7.063125 14.548125 -7 16 C-9.97 16 -12.94 16 -16 16 C-11.17917294 10.03739811 -5.77505724 5.03320206 0 0 Z " fill="#EFEFEF" transform="translate(79,56)"/>
<path d="M0 0 C2.62386487 3.06117568 3 3.73173127 3 8 C-4.92 8 -12.84 8 -21 8 C-21 7.34 -21 6.68 -21 6 C-11.1 5.505 -11.1 5.505 -1 5 C-0.67 3.35 -0.34 1.7 0 0 Z " fill="#EFEFEF" transform="translate(213,112)"/>
<path d="M0 0 C7.92 0 15.84 0 24 0 C19.91538869 2.04230565 17.05471093 2.56403015 12.5625 3.125 C11.26441406 3.29257812 9.96632812 3.46015625 8.62890625 3.6328125 C5.71008304 3.92815091 2.92743207 4.07896734 0 4 C0 2.68 0 1.36 0 0 Z " fill="#D2D2D2" transform="translate(192,336)"/>
<path d="M0 0 C1.32 0 2.64 0 4 0 C4.15490223 5.73138244 3.65244885 10.89349206 2.5 16.5 C2.35691406 17.22703125 2.21382813 17.9540625 2.06640625 18.703125 C1.71766302 20.47009071 1.35980277 22.23525309 1 24 C0.67 24 0.34 24 0 24 C0 16.08 0 8.16 0 0 Z " fill="#C4C4C4" transform="translate(336,192)"/>
<path d="M0 0 C0.33 0 0.66 0 1 0 C1.50938345 2.49840454 2.00763114 4.99823388 2.5 7.5 C2.64308594 8.19609375 2.78617187 8.8921875 2.93359375 9.609375 C3.88277373 14.49087203 4.13440046 19.02718299 4 24 C2.68 24 1.36 24 0 24 C0 16.08 0 8.16 0 0 Z " fill="#DCDCDC" transform="translate(336,144)"/>
<path d="M0 0 C2.64 0 5.28 0 8 0 C7.49477778 4.37859255 4.82172778 6.81651224 2 10 C1.34 9.67 0.68 9.34 0 9 C0 6.03 0 3.06 0 0 Z " fill="#E2E2E2" transform="translate(288,288)"/>
<path d="M0 0 C0.66 0.33 1.32 0.66 2 1 C0.54144353 4.68646141 -1.30229045 6.16143971 -4.625 8.25 C-5.44226563 8.77078125 -6.25953125 9.2915625 -7.1015625 9.828125 C-8.04128906 10.40820312 -8.04128906 10.40820312 -9 11 C-10.94566951 7.52452927 -11.07637127 5.87493656 -10 2 C-9.071875 2.165 -8.14375 2.33 -7.1875 2.5 C-4.04378647 3.07748388 -4.04378647 3.07748388 -1 3 C-0.67 2.01 -0.34 1.02 0 0 Z " fill="#E5E5E5" transform="translate(82,25)"/>
<path d="M0 0 C0.99 0 1.98 0 3 0 C2.86722656 1.02738281 2.73445312 2.05476562 2.59765625 3.11328125 C1.58056202 11.06545843 0.64351028 19.00692489 0 27 C-0.33 27 -0.66 27 -1 27 C-1.02892385 22.87501462 -1.04677267 18.75005515 -1.0625 14.625 C-1.07087891 13.449375 -1.07925781 12.27375 -1.08789062 11.0625 C-1.09111328 9.94101563 -1.09433594 8.81953125 -1.09765625 7.6640625 C-1.10289307 6.62717285 -1.10812988 5.5902832 -1.11352539 4.52197266 C-1 2 -1 2 0 0 Z " fill="#CACACA" transform="translate(1,144)"/>
<path d="M0 0 C0.33 1.32 0.66 2.64 1 4 C-0.08667969 4.85271484 -0.08667969 4.85271484 -1.1953125 5.72265625 C-7.75120532 10.91645782 -7.75120532 10.91645782 -13.375 17.0625 C-16 20 -16 20 -18.875 20.4375 C-19.57625 20.293125 -20.2775 20.14875 -21 20 C-19.71034824 18.62437146 -18.37310707 17.29233607 -17 16 C-16.34 16 -15.68 16 -15 16 C-15 15.34 -15 14.68 -15 14 C-13.29781633 12.50618709 -11.53677109 11.07902984 -9.75 9.6875 C-5.95169385 6.72823767 -2.87706767 3.87034103 0 0 Z " fill="#D3D3D3" transform="translate(279,148)"/>
<path d="M0 0 C4.43379675 2.21689838 6.46636932 4.77728219 9 9 C6.03 9 3.06 9 0 9 C0 6.03 0 3.06 0 0 Z " fill="#DBDBDB" transform="translate(48,303)"/>
<path d="M0 0 C2.31 0 4.62 0 7 0 C7 2.97 7 5.94 7 9 C3.942048 7.26440562 1.36620011 5.61527381 -1 3 C-0.67 2.01 -0.34 1.02 0 0 Z " fill="#DCDCDC" transform="translate(65,288)"/>
<path d="M0 0 C3.057952 1.73559438 5.63379989 3.38472619 8 6 C7.67 6.99 7.34 7.98 7 9 C4.69 9 2.38 9 0 9 C0 6.03 0 3.06 0 0 Z " fill="#E3E3E3" transform="translate(288,63)"/>
<path d="M0 0 C2.97 0 5.94 0 9 0 C9 2.97 9 5.94 9 9 C7.68103535 8.07161713 6.37001311 7.13194268 5.0625 6.1875 C4.33160156 5.66542969 3.60070312 5.14335938 2.84765625 4.60546875 C1 3 1 3 0 0 Z " fill="#E0E0E0" transform="translate(303,48)"/>
<path d="M0 0 C1.134375 0.020625 2.26875 0.04125 3.4375 0.0625 C2.89523019 3.85838866 1.23622437 5.53461993 -1.5625 8.0625 C-2.5525 7.7325 -3.5425 7.4025 -4.5625 7.0625 C-4.60504356 5.06295254 -4.60330783 3.06208364 -4.5625 1.0625 C-3.5625 0.0625 -3.5625 0.0625 0 0 Z " fill="#E5E5E5" transform="translate(52.5625,47.9375)"/>
<path d="M0 0 C0.33 0 0.66 0 1 0 C1 6.6 1 13.2 1 20 C0.01 20 -0.98 20 -2 20 C-1.85879984 17.41633755 -1.71221667 14.83317115 -1.5625 12.25 C-1.52318359 11.52039063 -1.48386719 10.79078125 -1.44335938 10.0390625 C-1.23852902 6.5727027 -0.9147998 3.34666974 0 0 Z " fill="#D3D3D3" transform="translate(23,148)"/>
<path d="M0 0 C6.6 0 13.2 0 20 0 C20 0.99 20 1.98 20 3 C17.41577541 2.88581333 14.83320487 2.75907638 12.25 2.625 C11.52039063 2.5940625 10.79078125 2.563125 10.0390625 2.53125 C5.99202856 2.31050269 3.70158006 1.85079003 0 0 Z " fill="#D8D8D8" transform="translate(196,0)"/>
<path d="M0 0 C0.33 0.66 0.66 1.32 1 2 C3.64 2 6.28 2 9 2 C9 2.33 9 2.66 9 3 C3.06 3.495 3.06 3.495 -3 4 C-3 7.63 -3 11.26 -3 15 C-5 13 -5 13 -5.1953125 10.3984375 C-5.17210937 9.40070313 -5.14890625 8.40296875 -5.125 7.375 C-5.10695312 6.37210938 -5.08890625 5.36921875 -5.0703125 4.3359375 C-5.04710937 3.56507813 -5.02390625 2.79421875 -5 2 C-3.35 1.34 -1.7 0.68 0 0 Z " fill="#DCDCDC" transform="translate(197,195)"/>
<path d="M0 0 C-1.32 0.33 -2.64 0.66 -4 1 C-2.02 1.66 -0.04 2.32 2 3 C1.67 3.66 1.34 4.32 1 5 C-0.98 5 -2.96 5 -5 5 C-5 4.34 -5 3.68 -5 3 C-8.3 3 -11.6 3 -15 3 C-14.67 2.34 -14.34 1.68 -14 1 C-9.28474515 0.20080426 -4.78845757 -0.11971144 0 0 Z " fill="#F3F3F3" transform="translate(220,189)"/>
<path d="M0 0 C0.33 0 0.66 0 1 0 C1 4.95 1 9.9 1 15 C0.34 15 -0.32 15 -1 15 C-1.33 15.66 -1.66 16.32 -2 17 C-2 12.38 -2 7.76 -2 3 C-1.34 3 -0.68 3 0 3 C0 2.01 0 1.02 0 0 Z " fill="#FDFDFD" transform="translate(338,165)"/>
<path d="M0 0 C0.66 0 1.32 0 2 0 C1.37321829 3.66172475 0.35548154 6.8818995 -1.0625 10.3125 C-1.42472656 11.19550781 -1.78695313 12.07851562 -2.16015625 12.98828125 C-2.43730469 13.65214844 -2.71445313 14.31601563 -3 15 C-3.66 14.67 -4.32 14.34 -5 14 C-4.49202991 9.6822542 -3.80317221 5.96697886 -2 2 C-1.34 2 -0.68 2 0 2 C0 1.34 0 0.68 0 0 Z " fill="#E0E0E0" transform="translate(14,105)"/>
<path d="M0 0 C2.58422459 0.11418667 5.16679513 0.24092362 7.75 0.375 C8.47960937 0.4059375 9.20921875 0.436875 9.9609375 0.46875 C14.00797144 0.68949731 16.29841994 1.14920997 20 3 C13.4 3 6.8 3 0 3 C0 2.01 0 1.02 0 0 Z " fill="#D6D6D6" transform="translate(192,21)"/>
<path d="M0 0 C3.3 0 6.6 0 10 0 C9.01 0.495 9.01 0.495 8 1 C8 1.66 8 2.32 8 3 C5.625 4.6875 5.625 4.6875 3 6 C2.34 5.67 1.68 5.34 1 5 C0.67 5.66 0.34 6.32 0 7 C0 4.69 0 2.38 0 0 Z " fill="#EEEEEE" transform="translate(24,72)"/>
<path d="M0 0 C0.89203125 0.00902344 1.7840625 0.01804688 2.703125 0.02734375 C3.37859375 0.03894531 4.0540625 0.05054688 4.75 0.0625 C1.75 1.5625 1.75 1.5625 -1.25 3.0625 C-0.92 3.7225 -0.59 4.3825 -0.25 5.0625 C-1.920625 4.815 -1.920625 4.815 -3.625 4.5625 C-6.97032033 4.0169542 -6.97032033 4.0169542 -9.25 4.0625 C-9.91 3.7325 -10.57 3.4025 -11.25 3.0625 C-7.92392552 -0.26357448 -4.54621004 -0.05981855 0 0 Z " fill="#CECECE" transform="translate(181.25,175.9375)"/>
<path d="M0 0 C-0.99 0.33 -1.98 0.66 -3 1 C-3.33 1.66 -3.66 2.32 -4 3 C-9.94 3 -15.88 3 -22 3 C-22 2.67 -22 2.34 -22 2 C-21.3709375 1.95101563 -20.741875 1.90203125 -20.09375 1.8515625 C-15.82343032 1.47855265 -11.76090041 1.02993068 -7.625 -0.125 C-4.18527433 -0.95527861 -3.177972 -0.99399124 0 0 Z " fill="#CACACA" transform="translate(220,357)"/>
<path d="M0 0 C1.65 0 3.3 0 5 0 C5 1.32 5 2.64 5 4 C6.2065625 4.185625 6.2065625 4.185625 7.4375 4.375 C8.7059375 4.684375 8.7059375 4.684375 10 5 C10.33 5.66 10.66 6.32 11 7 C2.42857143 6.14285714 2.42857143 6.14285714 -1 4 C-0.34 3.34 0.32 2.68 1 2 C0.67 1.34 0.34 0.68 0 0 Z " fill="#F1F1F1" transform="translate(139,188)"/>
<path d="M0 0 C5.75 1.75 5.75 1.75 8 4 C6.35 4.33 4.7 4.66 3 5 C3.33 6.32 3.66 7.64 4 9 C2.02 8.34 0.04 7.68 -2 7 C-1.34 6.67 -0.68 6.34 0 6 C0 4.02 0 2.04 0 0 Z M4 5 C4.66 5.66 5.32 6.32 6 7 C5.34 7 4.68 7 4 7 C4 6.34 4 5.68 4 5 Z " fill="#CCCCCC" transform="translate(120,179)"/>
<path d="M0 0 C3.3 0 6.6 0 10 0 C10.33 1.65 10.66 3.3 11 5 C10.34 5 9.68 5 9 5 C8.67 5.66 8.34 6.32 8 7 C7.67 6.01 7.34 5.02 7 4 C5.35448038 3.28272222 3.68577711 2.61674772 2 2 C1.34 1.34 0.68 0.68 0 0 Z " fill="#EEEEEE" transform="translate(274,24)"/>
<path d="M0 0 C3.74123976 4.2954975 6.34151874 8.99900452 9 14 C8.34 14 7.68 14 7 14 C7 13.34 7 12.68 7 12 C6.34 12 5.68 12 5 12 C2.375 9.9375 2.375 9.9375 0 7 C-0.3125 3.1875 -0.3125 3.1875 0 0 Z " fill="#CFCFCF" transform="translate(24,270)"/>
<path d="M0 0 C0.33 0 0.66 0 1 0 C1 5.94 1 11.88 1 18 C0.01 18 -0.98 18 -2 18 C-1.34 12.06 -0.68 6.12 0 0 Z " fill="#CDCDCD" transform="translate(359,198)"/>
<path d="M0 0 C0.33 0 0.66 0 1 0 C1.66 5.61 2.32 11.22 3 17 C2.01 17.66 1.02 18.32 0 19 C0 12.73 0 6.46 0 0 Z " fill="#D0D0D0" transform="translate(0,195)"/>
<path d="M0 0 C2.4044979 1.88178097 2.99790027 2.99224715 3.8125 6 C4 9 4 9 2 12 C1.27232997 10.76115681 0.56845185 9.50831659 -0.125 8.25 C-0.51945312 7.55390625 -0.91390625 6.8578125 -1.3203125 6.140625 C-2 4 -2 4 -1.1171875 1.734375 C-0.74851562 1.16203125 -0.37984375 0.5896875 0 0 Z " fill="#292929" transform="translate(324,104)"/>
<path d="M0 0 C6.27 0.66 12.54 1.32 19 2 C19 2.33 19 2.66 19 3 C12.73 3 6.46 3 0 3 C0 2.01 0 1.02 0 0 Z " fill="#CACACA" transform="translate(145,357)"/>
<path d="M0 0 C1.98 0 3.96 0 6 0 C6 0.66 6 1.32 6 2 C7.32 2.33 8.64 2.66 10 3 C6.12315913 4.19287411 3.08378077 5 -1 5 C-0.67 3.35 -0.34 1.7 0 0 Z " fill="#D4D4D4" transform="translate(209,192)"/>
<path d="M0 0 C0.66 0.33 1.32 0.66 2 1 C1.01 2.485 1.01 2.485 0 4 C1.32 4.66 2.64 5.32 4 6 C1 7 1 7 -2 6 C-2 5.34 -2 4.68 -2 4 C-2.66 4 -3.32 4 -4 4 C-4 4.66 -4 5.32 -4 6 C-5.32 5.34 -6.64 4.68 -8 4 C-5.31143836 2.20762558 -3.0466145 1.01553817 0 0 Z " fill="#CDCDCD" transform="translate(230,183)"/>
<path d="M0 0 C0 4.13122742 -1.4277594 5.81854452 -4 9 C-7.25 10.375 -7.25 10.375 -10 11 C-6.79239749 7.19364503 -3.59253891 3.45436433 0 0 Z " fill="#CACACA" transform="translate(313,301)"/>
<path d="M0 0 C1.32 1.32 2.64 2.64 4 4 C3.67 4.99 3.34 5.98 3 7 C2.34 7 1.68 7 1 7 C1 7.99 1 8.98 1 10 C0.34 10 -0.32 10 -1 10 C-1.02689216 8.52093108 -1.04634621 7.04172517 -1.0625 5.5625 C-1.07410156 4.73878906 -1.08570312 3.91507812 -1.09765625 3.06640625 C-1 1 -1 1 0 0 Z " fill="#EDEDED" transform="translate(25,276)"/>
<path d="M0 0 C0.33 0 0.66 0 1 0 C1.02696365 1.79158489 1.04637917 3.58328473 1.0625 5.375 C1.07410156 6.37273437 1.08570313 7.37046875 1.09765625 8.3984375 C1 11 1 11 0 13 C-0.66 13 -1.32 13 -2 13 C-2.66 14.32 -3.32 15.64 -4 17 C-4.6875 15.1875 -4.6875 15.1875 -5 13 C-3.6875 11.25 -3.6875 11.25 -2 10 C-1.34 10 -0.68 10 0 10 C0 6.7 0 3.4 0 0 Z " fill="#3D3D3D" transform="translate(286,127)"/>
<path d="M0 0 C6.27 0 12.54 0 19 0 C19 0.33 19 0.66 19 1 C12.4 1.66 5.8 2.32 -1 3 C-0.67 2.01 -0.34 1.02 0 0 Z " fill="#D6D6D6" transform="translate(149,0)"/>
<path d="M0 0 C1.33333333 1.33333333 2.66666667 2.66666667 4 4 C0.33333333 4 -3.33333333 4 -7 4 C-7 3.01 -7 2.02 -7 1 C-4.48718205 -0.25640898 -2.78302919 -0.20872719 0 0 Z " fill="#EFEFEF" transform="translate(199,193)"/>
<path d="M0 0 C2.60018816 3.90028225 2.15085514 7.47434569 2 12 C0.68 12 -0.64 12 -2 12 C-2.26252625 7.66831683 -1.29243536 4.1196377 0 0 Z " fill="#BDBDBD" transform="translate(338,156)"/>
<path d="M0 0 C0.99 0 1.98 0 3 0 C3 5.28 3 10.56 3 16 C2.67 16 2.34 16 2 16 C1.34 10.72 0.68 5.44 0 0 Z " fill="#E1E1E1" transform="translate(357,144)"/>
<path d="M0 0 C4.35019062 0.50583612 7.49968887 1.29975999 11 4 C11.63671875 6.10546875 11.63671875 6.10546875 12 8 C9.99743426 6.85865673 7.99800203 5.71181367 6 4.5625 C4.88625 3.92441406 3.7725 3.28632813 2.625 2.62890625 C1.75875 2.09136719 0.8925 1.55382812 0 1 C0 0.67 0 0.34 0 0 Z " fill="#CBCBCB" transform="translate(270,24)"/>
<path d="M0 0 C0 1.32 0 2.64 0 4 C-2.64 4 -5.28 4 -8 4 C-7.67 3.01 -7.34 2.02 -7 1 C-4 0 -4 0 0 0 Z " fill="#FCFCFC" transform="translate(224,356)"/>
<path d="M0 0 C3.96 0.33 7.92 0.66 12 1 C12 1.33 12 1.66 12 2 C10.56496445 2.36402369 9.12683494 2.71586591 7.6875 3.0625 C6.88699219 3.25972656 6.08648437 3.45695313 5.26171875 3.66015625 C3 4 3 4 0 3 C0 2.01 0 1.02 0 0 Z " fill="#E3E3E3" transform="translate(144,189)"/>
<path d="M0 0 C0.33 0 0.66 0 1 0 C1.06058594 0.72445312 1.12117188 1.44890625 1.18359375 2.1953125 C1.61483433 7.17116533 2.07047641 12.08680391 3 17 C2.01 17 1.02 17 0 17 C0 11.39 0 5.78 0 0 Z " fill="#FAFAFA" transform="translate(72,247)"/>
<path d="M0 0 C4.455 1.98 4.455 1.98 9 4 C7.68 4.99 6.36 5.98 5 7 C3.29115995 5.37660195 1.62553283 3.70680947 0 2 C0 1.34 0 0.68 0 0 Z " fill="#313131" transform="translate(103,320)"/>
<path d="M0 0 C0 3 0 3 -2.1875 5.5625 C-4.81277706 7.83774012 -6.72443519 8.97053677 -10 10 C-3.84965831 2.51708428 -3.84965831 2.51708428 0 0 Z " fill="#CFCFCF" transform="translate(79,56)"/>
<path d="M0 0 C0.66 0.33 1.32 0.66 2 1 C1.34 1.66 0.68 2.32 0 3 C0 3.99 0 4.98 0 6 C-2.31 6 -4.62 6 -7 6 C-4.83312509 3.72478134 -2.54379491 1.84205838 0 0 Z " fill="#BBBBBB" transform="translate(278,330)"/>
<path d="M0 0 C1.2065625 0.0309375 1.2065625 0.0309375 2.4375 0.0625 C2.1075 0.7225 1.7775 1.3825 1.4375 2.0625 C2.0975 2.7225 2.7575 3.3825 3.4375 4.0625 C1.4575 4.7225 -0.5225 5.3825 -2.5625 6.0625 C-2.94468767 4.40635343 -3.27645102 2.73792976 -3.5625 1.0625 C-2.5625 0.0625 -2.5625 0.0625 0 0 Z " fill="#E4E4E4" transform="translate(138.5625,186.9375)"/>
<path d="M0 0 C0.99 0.33 1.98 0.66 3 1 C2.67 2.32 2.34 3.64 2 5 C0.35 5 -1.3 5 -3 5 C-3 4.01 -3 3.02 -3 2 C-2.01 1.34 -1.02 0.68 0 0 Z " fill="#F2F2F2" transform="translate(173,178)"/>
<path d="M0 0 C0.66 1.32 1.32 2.64 2 4 C0.03533587 5.06775224 -1.96855359 6.06553465 -4 7 C-4.66 6.67 -5.32 6.34 -6 6 C-5.01 5.67 -4.02 5.34 -3 5 C-1.8499169 3.03327085 -1.8499169 3.03327085 -1 1 C-0.67 0.67 -0.34 0.34 0 0 Z " fill="#393939" transform="translate(302,283)"/>
<path d="M0 0 C1.32 0 2.64 0 4 0 C3.67 2.64 3.34 5.28 3 8 C2.01 7.34 1.02 6.68 0 6 C-0.1875 2.875 -0.1875 2.875 0 0 Z " fill="#D5D5D5" transform="translate(332,216)"/>
<path d="M0 0 C2.46800047 1.15173355 4.04783565 2.04783565 6 4 C3.39417629 4.93065133 2.35801776 5.14917407 -0.25 4.0625 C-0.8275 3.711875 -1.405 3.36125 -2 3 C-1.34 2.67 -0.68 2.34 0 2 C0 1.34 0 0.68 0 0 Z " fill="#181818" transform="translate(258,18)"/>
<path d="M0 0 C-2.95183101 2.95183101 -5.95511947 3.08663988 -10 4 C-10 3.34 -10 2.68 -10 2 C-6.5980513 -0.09350689 -3.94727588 -0.17942163 0 0 Z " fill="#DFDFDF" transform="translate(234,330)"/>
<path d="M0 0 C0.33 0 0.66 0 1 0 C1 2.31 1 4.62 1 7 C-1.31 7 -3.62 7 -6 7 C-5.195625 6.401875 -4.39125 5.80375 -3.5625 5.1875 C-0.77672016 3.19052724 -0.77672016 3.19052724 0 0 Z " fill="#ECECEC" transform="translate(311,305)"/>
<path d="M0 0 C0.66 0 1.32 0 2 0 C2 0.66 2 1.32 2 2 C2.99 2.33 3.98 2.66 5 3 C2.36 3.99 -0.28 4.98 -3 6 C-3 5.34 -3 4.68 -3 4 C-2.34 3.67 -1.68 3.34 -1 3 C-0.67 2.01 -0.34 1.02 0 0 Z " fill="#E9E9E9" transform="translate(226,187)"/>
<path d="M0 0 C0.33 0 0.66 0 1 0 C1.12375 1.216875 1.2475 2.43375 1.375 3.6875 C1.78891306 7.06479059 2.54573451 9.89756695 4 13 C3.34 13 2.68 13 2 13 C2 12.01 2 11.02 2 10 C1.01 9.67 0.02 9.34 -1 9 C-0.67 6.03 -0.34 3.06 0 0 Z " fill="#C7C7C7" transform="translate(73,130)"/>
<path d="M0 0 C1.65 0 3.3 0 5 0 C5.66 1.32 6.32 2.64 7 4 C6.01 4.33 5.02 4.66 4 5 C2.68 3.35 1.36 1.7 0 0 Z " fill="#C7C7C7" transform="translate(281,122)"/>
<path d="M0 0 C0.99 0.33 1.98 0.66 3 1 C2.34 2.65 1.68 4.3 1 6 C-0.32 6 -1.64 6 -3 6 C-1.125 1.125 -1.125 1.125 0 0 Z " fill="#272727" transform="translate(29,82)"/>
<path d="M0 0 C0 1.65 0 3.3 0 5 C-2.97 4.505 -2.97 4.505 -6 4 C-5.67 3.01 -5.34 2.02 -5 1 C-2 0 -2 0 0 0 Z " fill="#E0E0E0" transform="translate(144,331)"/>
<path d="M0 0 C0.33 0.66 0.66 1.32 1 2 C3.64 2 6.28 2 9 2 C9 2.33 9 2.66 9 3 C3.06 3.495 3.06 3.495 -3 4 C-2.34 3.67 -1.68 3.34 -1 3 C-0.67 2.01 -0.34 1.02 0 0 Z " fill="#B0B0B0" transform="translate(197,195)"/>
<path d="M0 0 C2.31 0 4.62 0 7 0 C7 0.99 7 1.98 7 3 C4.36 2.67 1.72 2.34 -1 2 C-0.67 1.34 -0.34 0.68 0 0 Z " fill="#EAEAEA" transform="translate(281,120)"/>
<path d="M0 0 C0.33 0.66 0.66 1.32 1 2 C1.66 2 2.32 2 3 2 C2.67 2.99 2.34 3.98 2 5 C-0.5625 6.1875 -0.5625 6.1875 -3 7 C-1.125 1.125 -1.125 1.125 0 0 Z " fill="#D0D0D0" transform="translate(42,99)"/>
<path d="M0 0 C1.24546405 2.49092811 0.7767578 3.41080733 0 6 C-1.65 6 -3.3 6 -5 6 C-3.35 4.02 -1.7 2.04 0 0 Z " fill="#D1D1D1" transform="translate(68,66)"/>
<path d="M0 0 C4.875 2.75 4.875 2.75 6 5 C5.01 5.33 4.02 5.66 3 6 C1.5 4.6875 1.5 4.6875 0 3 C0 2.01 0 1.02 0 0 Z " fill="#CECECE" transform="translate(288,63)"/>
</svg>
